<?xml version="1.0" encoding="UTF-8" standalone="no"?>
<!-- Created with Inkscape (http://www.inkscape.org/) -->
<svg
   xmlns:dc="http://purl.org/dc/elements/1.1/"
   xmlns:cc="http://creativecommons.org/ns#"
   xmlns:rdf="http://www.w3.org/1999/02/22-rdf-syntax-ns#"
   xmlns:svg="http://www.w3.org/2000/svg"
   xmlns="http://www.w3.org/2000/svg"
   xmlns:sodipodi="http://sodipodi.sourceforge.net/DTD/sodipodi-0.dtd"
   xmlns:inkscape="http://www.inkscape.org/namespaces/inkscape"
   width="1019"
   height="200"
   id="svg2"
   sodipodi:version="0.32"
   inkscape:version="0.46"
   version="1.0"
   sodipodi:docname="Rover.svg"
   inkscape:output_extension="org.inkscape.output.svg.inkscape">
  <defs
     id="defs4">
    <inkscape:perspective
       sodipodi:type="inkscape:persp3d"
       inkscape:vp_x="0 : 526.18109 : 1"
       inkscape:vp_y="0 : 1000 : 0"
       inkscape:vp_z="744.09448 : 526.18109 : 1"
       inkscape:persp3d-origin="372.04724 : 350.78739 : 1"
       id="perspective10" />
    <inkscape:perspective
       id="perspective2390"
       inkscape:persp3d-origin="372.04724 : 350.78739 : 1"
       inkscape:vp_z="744.09448 : 526.18109 : 1"
       inkscape:vp_y="0 : 1000 : 0"
       inkscape:vp_x="0 : 526.18109 : 1"
       sodipodi:type="inkscape:persp3d" />
  </defs>
  <sodipodi:namedview
     id="base"
     pagecolor="#ffffff"
     bordercolor="#666666"
     borderopacity="1.0"
     inkscape:pageopacity="0.0"
     inkscape:pageshadow="2"
     inkscape:zoom="0.35"
     inkscape:cx="350"
     inkscape:cy="520"
     inkscape:document-units="px"
     inkscape:current-layer="layer1"
     showgrid="false"
     inkscape:window-width="640"
     inkscape:window-height="667"
     inkscape:window-x="154"
     inkscape:window-y="203" />
  <metadata
     id="metadata7">
    <rdf:RDF>
      <cc:Work
         rdf:about="">
        <dc:format>image/svg+xml</dc:format>
        <dc:type
           rdf:resource="http://purl.org/dc/dcmitype/StillImage" />
      </cc:Work>
    </rdf:RDF>
  </metadata>
  <g
     inkscape:label="Ebene 1"
     inkscape:groupmode="layer"
     id="layer1"
     transform="translate(-7.642857,-89.50505)">
    <g
       id="g2396"
       transform="translate(57.142857,-288.57143)">
      <path
         style="fill:#fdfdfd"
         d="M -49.5,478.07648 L -49.5,378.07648 L 460,378.07648 L 969.5,378.07648 L 969.5,478.07648 L 969.5,578.07648 L 460,578.07648 L -49.5,578.07648 L -49.5,478.07648 z"
         id="path2412" />
      <path
         style="fill:#fca3a3"
         d="M 235.25,576.82376 L 228.5,575.8426 L 228.5,566.83138 L 228.5,557.82016 L 225.25,560.45424 C 214.72429,568.98519 209.97,570.95927 204,569.27767 C 202.35,568.81291 200.84537,567.63008 200.65638,566.64916 C 200.30168,564.80821 205.18112,556.95494 211.57473,549.07648 C 213.58327,546.60148 217.24647,541.42648 219.71518,537.57648 C 222.18388,533.72648 226.09136,528.20069 228.39846,525.29695 L 232.59319,520.01742 L 245.22897,520.29695 L 257.86476,520.57648 L 273.61866,543.07648 C 282.28331,555.45148 289.40124,566.10281 289.43628,566.74611 C 289.47133,567.38941 287.24466,568.66485 284.48812,569.58042 L 279.47625,571.2451 L 274.98991,568.41079 C 272.52243,566.85192 270.50277,565.31526 270.50179,564.996 C 270.5008,564.67674 268.52908,563.00011 266.12017,561.27016 L 261.74034,558.1248 L 261.12017,561.22564 C 260.77908,562.9311 260.5,566.90811 260.5,570.06343 L 260.5,575.80038 L 254.83322,576.93843 C 248.38293,578.23383 244.80666,578.21289 235.25,576.82376 z M 677,577.4788 C 658.56193,575.03555 651.98172,573.32117 640.67149,568.01396 C 631.0372,563.49317 623.76014,558.12973 615.4486,549.42384 C 605.97889,539.50481 602.18355,534.00194 597.71751,523.7155 C 592.76751,512.31434 590.76031,503.71338 589.33529,487.79714 C 585.33595,443.12783 602.32355,407.40576 636.08208,389.4965 C 650.17354,382.02083 667.96739,378.07997 687.63992,378.07785 C 714.46403,378.07495 733.77409,385.21947 749.65109,401.02134 C 761.33138,412.64637 767.10727,425.87891 770.62673,449.07648 C 773.96847,471.10262 771.97235,479.97493 762.5,485.19798 C 760.49645,486.30274 749.31013,486.67577 706.16864,487.07648 C 654.3425,487.55785 652.28443,487.64879 650.91864,489.51761 C 648.2777,493.13122 649.22436,502.03678 653.19476,510.9298 C 657.53227,520.6451 669.45237,527.91963 682.4998,528.81392 C 696.06536,529.74372 701.92821,527.17799 716.28652,514.02794 C 727.06518,504.15631 732.10285,501.71295 741.46869,501.81412 C 755.23338,501.96281 764.21181,507.98094 767.06209,518.96906 C 769.73872,529.28774 763.87213,543.66221 752.64111,554.30367 C 737.7921,568.3732 716.38382,576.21889 689.5,577.44356 C 684.275,577.68159 678.65,577.69744 677,577.4788 z M 708.21688,445.45486 C 711.98147,444.44562 712.8927,437.67035 710.01285,432.10133 C 706.91511,426.11096 696.44303,419.86262 687.28541,418.54062 C 675.0447,416.77353 658.31123,425.68553 652.50677,437.0632 C 649.92054,442.13263 649.97531,443.93003 652.75,445.04532 C 655.22804,446.04137 704.66748,446.4064 708.21688,445.45486 z M -39.905314,570.54904 C -46.632975,567.04059 -49.449657,560.39063 -49.478038,547.9486 C -49.499519,538.53148 -48.423949,533.94492 -45.26662,529.98982 C -41.931867,525.81248 -34.951635,524.51669 -27.847241,526.75616 C -22.671624,528.38762 -22.438489,528.3793 -20.974665,526.5107 C -15.838817,519.95468 -16,521.58878 -16,476.07648 C -16,430.12203 -16.246124,427.74049 -21.09107,426.81432 C -22.428915,426.55858 -25.430725,426.71834 -27.761758,427.16935 C -42.398974,430.0014 -49.316619,423.71074 -49.444127,407.45221 C -49.599305,387.66558 -39.247435,380.01287 -18.5,384.57648 C -9.997523,386.44669 -4.283428,386.42348 7.163716,384.47224 C 18.10529,382.60718 22.761296,383.17636 26.10863,386.7882 C 28.425775,389.28844 28.503601,389.89941 28.616001,406.4725 C 28.679802,415.87969 28.938074,422.67648 29.189938,421.57648 C 30.19436,417.18974 33.700717,408.60334 35.54582,406.01213 C 36.620619,404.50272 37.5,402.86399 37.5,402.37053 C 37.5,401.87707 40.199729,398.73992 43.499397,395.39909 C 53.01087,385.76896 62.5947,381.4934 80.0102,379.11079 C 97.7566,376.6829 119.63554,387.50702 128.88539,403.2907 C 133.6103,411.35315 135.67068,425.01867 133.45165,433.57648 C 130.26965,445.84804 124.87263,453.07127 115.66685,457.37918 C 101.37022,464.06938 85.77832,458.72731 79.55347,445.00606 C 76.94919,439.26552 77.02202,436.85203 80.0191,429.57648 C 81.3785,426.27648 82.49282,423.40202 82.49537,423.1888 C 82.51046,421.92505 70.19094,424.55817 66,426.71445 C 59.21078,430.20758 55.8249,433.56382 52.51999,440.07648 C 45.54076,453.82973 43,469.17573 43,497.57648 C 43,516.51595 43.238361,519.99382 44.713409,522.57648 C 47.918526,528.1883 47.563157,528.03169 53.80134,526.58158 C 61.94454,524.68863 69.2749,527.14287 73.59379,533.2082 C 75.48082,535.85829 75.83191,537.60675 75.76274,544.00991 C 75.62307,556.93953 71.1127,567.13426 64.04906,570.48617 C 59.72625,572.53748 47.483056,572.54719 33.5,570.51039 C 19.802645,568.51522 1.916161,568.50648 -12.801216,570.48777 C -27.664335,572.48868 -36.149171,572.50786 -39.905314,570.54904 z M 431,570.41128 C 423.99389,566.70944 421.20557,562.00615 414.49827,542.57648 C 411.84015,534.87648 406.67053,520.47648 403.01021,510.57648 C 399.34989,500.67648 395.67074,490.55148 394.83432,488.07648 C 390.75161,475.99552 378.1134,441.99372 376.06385,437.57648 C 372.66133,430.24326 370.61128,428.76328 364.27624,429.06675 C 354.81753,429.51986 352.11486,429.08158 348.3717,426.48757 C 341.60887,421.80093 338.68061,409.62443 341.44787,397.69646 C 342.52996,393.03225 348.10937,387.00731 353.66771,384.50085 C 357.46072,382.79045 358.3484,382.7858 373.32007,384.39805 C 392.78441,386.4941 401.4123,386.50736 421.87254,384.47266 C 439.73906,382.69591 445.45022,382.99011 451.33084,385.99018 C 456.90842,388.83565 459.67519,393.77673 460.25167,401.92156 C 461.19686,415.27601 456.11938,423.58343 445.5,426.05719 C 442.475,426.76185 439.4375,427.78456 438.75,428.32988 C 436.75277,429.91406 437.28353,435.25539 440.4323,445.25983 C 442.04507,450.38399 446.05757,463.12648 449.34897,473.57648 C 452.64037,484.02648 456.99426,497.97648 459.02428,504.57648 C 465.13984,524.45934 466.31357,527.66928 466.88583,526.07648 C 467.73229,523.72048 470.64258,514.72996 480.48147,484.07648 C 485.5127,468.40148 491.4001,450.75947 493.56458,444.872 C 495.72906,438.98454 497.5,433.01476 497.5,431.60582 C 497.5,428.89523 496.19003,428.07758 486.24064,424.57798 C 480.33094,422.4993 476.24996,418.52299 474.69309,413.32663 C 470.99069,400.96911 476.38519,387.55164 486.39922,384.21059 C 491.08854,382.64606 496.49463,382.74766 514.62588,384.74108 C 529.58095,386.38529 530.99762,386.37979 547.62588,384.61282 C 564.0191,382.87083 565.32438,382.86153 570.74554,384.44818 C 578.33816,386.67035 582.86679,390.78122 585.54987,397.8868 C 589.96217,409.57186 586.37586,423.05992 577.55088,427.97086 C 573.68045,430.12469 572.7085,430.26743 567.87659,429.39161 C 563.64077,428.62384 561.85797,428.73135 559.44486,429.90005 C 554.93491,432.08428 555.01481,431.90335 537.06553,480.57648 C 526.8261,508.34281 525.69371,511.35674 519.97035,526.07648 C 517.93875,531.30148 515.46456,538.10446 514.47214,541.19421 C 510.7045,552.92422 504.14431,563.42159 497.55148,568.27001 C 492.24751,572.1706 482.61396,573.12365 473.94989,570.60494 C 466.52448,568.44631 458.51558,568.40043 451.52478,570.47648 C 444.65797,572.5157 434.92431,572.48478 431,570.41128 z M 793.78428,569.98314 C 786.40578,565.25725 783.53847,554.84004 785.89723,541.32875 C 787.73058,530.82708 789.36191,528.4632 796.13457,526.49434 C 801.10993,525.04796 801.93258,525.05943 806.69594,526.64156 L 811.86166,528.35734 L 814.14658,525.70096 C 818.68456,520.42525 819.00117,517.11045 818.98183,475.07648 C 818.96198,431.89927 818.53057,427.6978 814.02861,426.8372 C 812.67765,426.57895 809.06616,426.79942 806.00309,427.32715 C 796.82042,428.90921 792.41934,427.25652 788.02623,420.57648 C 785.19477,416.27103 785.11588,398.24284 787.9059,393.07648 C 792.94937,383.73734 801.34237,381.2424 816.5,384.57648 C 825.03843,386.4546 830.82986,386.42347 842.76361,384.43535 C 850.60825,383.12845 853.39498,383.02805 856.44664,383.94235 C 862.55778,385.77329 863.48755,388.87965 863.56581,407.72761 C 863.63157,423.56361 863.63282,423.57202 865.10536,418.07648 C 867.01829,410.93745 873.37571,400.29163 879.30302,394.3018 C 884.50602,389.04393 895.38641,382.97697 902.85315,381.17013 C 921.13155,376.74702 935.39189,378.7896 948.73298,387.74171 C 954.344,391.5068 956.4538,393.64532 962.3821,401.57648 C 972.5269,415.14873 971.5129,438.19637 960.2381,450.30896 C 946.39053,465.18554 924.76892,463.33609 914.85977,446.42741 C 912.62568,442.61522 912.31541,441.15395 912.7814,436.63897 C 913.08266,433.71996 914.31095,429.40722 915.51092,427.05508 L 917.69268,422.77847 L 911.86752,423.4631 C 904.70614,424.30478 897.04917,427.83313 892.79892,432.24995 C 886.26276,439.04225 880.49895,456.0365 878.5415,474.28707 C 877.19179,486.87134 877.2007,514.00282 878.55631,519.38366 C 879.13729,521.68971 880.37479,524.56445 881.30631,525.77197 C 882.93858,527.88784 883.2092,527.91815 888.76886,526.60778 C 897.72279,524.49742 905.5915,527.50371 909.1782,534.40532 C 912.47421,540.74758 910.26066,557.11644 905.01789,565.17019 C 903.73121,567.14673 901.10781,569.50923 899.18811,570.42019 C 894.7175,572.54163 882.68768,572.57699 868.5,570.51039 C 854.80264,568.51522 836.91616,568.50648 822.19878,570.48777 C 805.6996,572.70893 797.82161,572.56902 793.78428,569.98314 z M 293.5,543.2279 C 289.375,540.56133 283.03094,535.94889 279.40209,532.97804 C 275.77324,530.00718 271.49824,526.58898 269.90209,525.38204 L 267,523.18759 L 274.63922,523.13204 C 284.40153,523.06104 286.45822,521.61249 287.60386,514.0009 C 288.05291,511.01747 288.87919,505.65148 289.44005,502.07648 C 290.50753,495.27218 290.85005,485.07648 290.01116,485.07648 C 288.10835,485.07648 273.56848,489.53969 271.78518,490.67119 C 270.56703,491.4441 268.95798,492.07648 268.2095,492.07648 C 264.79441,492.07648 260.19799,500.23917 258.9584,508.50531 C 258.52066,511.42437 257.70487,513.17285 256.64139,513.47135 C 255.73863,513.72474 250.13657,513.62705 244.19237,513.25427 L 233.38474,512.57648 L 230.92736,505.26839 C 226.91348,493.33137 226.47886,492.93988 210.78226,487.12223 C 199.61083,482.98175 199.5,483.00231 199.5,489.21539 C 199.5,496.87075 203.4013,518.30994 205.14496,520.23665 C 206.39975,521.62318 207.93203,521.81395 214.07974,521.349 C 218.83762,520.98916 221.5,521.15492 221.5,521.81098 C 221.5,522.37373 218.2375,525.35658 214.25,528.43953 C 210.2625,531.52249 204.75,535.88743 202,538.13939 C 194.4388,544.33125 187.67548,547.07648 179.98207,547.07648 C 173.60498,547.07648 173.44645,547.0092 167.76059,541.88945 C 157.65694,532.79179 150.73875,520.33052 145.87041,502.46017 C 143.47869,493.68083 143.17512,490.78872 143.15351,476.57648 C 143.12997,461.09137 143.22882,460.31272 146.22512,452.38024 C 150.86082,440.10758 156.07375,436.0964 167.40622,436.08206 C 170.93276,436.07759 175.02549,437.69276 187.90622,444.17226 C 196.7578,448.62494 204.675,452.85023 205.5,453.56181 C 207.16272,454.99593 220.16725,461.51871 223.4255,462.55283 C 225.37458,463.17145 225.50077,462.82931 225.51274,456.89387 C 225.51975,453.4193 224.75124,446.39909 223.80495,441.29338 C 221.8382,430.68182 223.45538,431.79164 207.5,430.10374 C 171.35401,426.27988 160.05899,424.9688 159.63834,424.54816 C 158.61802,423.52784 162.29472,418.27221 168.53808,411.82648 L 175.07616,405.07648 L 196.70475,405.07648 C 213.08623,405.07648 218.4492,404.77323 218.81093,403.82648 C 219.0736,403.13898 219.04598,399.10938 218.74954,394.87182 C 218.05711,384.9737 219.29548,382.81386 226.69981,381.00576 C 232.84554,379.505 246.67088,379.23917 257.64217,380.4108 C 268.71552,381.59333 269.5,382.55787 269.5,394.99043 L 269.5,404.82648 L 272.625,405.45148 C 274.34375,405.79523 284.20982,406.07648 294.5496,406.07648 L 313.3492,406.07648 L 321.1746,414.65368 C 325.47857,419.37115 329.1343,424.02368 329.29845,424.99266 C 329.56924,426.59115 327.80834,426.86488 310.29845,427.94621 C 299.6843,428.60169 285.67197,429.64194 279.15993,430.25787 C 265.66359,431.5344 266.34882,430.97906 264.57715,442.07648 C 263.08572,451.41856 262.07935,466.07648 262.92938,466.07648 C 263.70038,466.07648 295.26339,449.90076 304.5,444.77197 C 313.81814,439.5979 314.89362,439.10747 318.36629,438.44878 C 320.21774,438.0976 324.26774,438.37432 327.36629,439.06373 C 331.91827,440.07651 333.80567,441.16729 337.19602,444.74458 C 339.50382,447.17965 342.41029,451.73799 343.65483,454.87423 C 345.71914,460.07629 345.92122,462.24314 345.95859,479.57648 C 345.99917,498.39802 345.96971,498.66187 342.82215,507.66735 C 339.30028,517.7438 333.91754,528.39 329.13516,534.73805 C 327.41082,537.02691 325.12145,540.10171 324.04768,541.57094 C 320.86892,545.92037 315.48048,548.0765 307.78984,548.07635 C 301.36841,548.07622 300.59306,547.81315 293.5,543.2279 z"
         id="path2410" />
      <path
         style="fill:#a5a5a5"
         d="M 237.28556,576.78755 L 228.57112,575.7797 L 228.28556,566.82651 L 228,557.87332 L 221.63051,562.96853 C 214.71601,568.49972 209.58348,570.44318 204.54946,569.43637 C 198.92525,568.31153 199.44935,566.03102 207.96451,554.57648 C 210.41769,551.27648 215.90088,543.48512 220.14939,537.26234 C 224.39789,531.03956 229.22523,524.62706 230.87681,523.01234 C 233.854,520.10158 233.98011,520.07648 245.626,520.07648 L 257.37233,520.07648 L 263.27367,528.82648 C 266.5194,533.63898 273.74113,544.0638 279.32195,551.99275 C 290.24431,567.5107 290.48192,568.42644 283.90609,569.66008 C 278.82499,570.61329 276.62667,569.69348 269.5,563.63235 C 265.925,560.59186 262.4375,558.09795 261.75,558.09033 C 260.89027,558.08081 260.5,559.91076 260.5,563.95148 C 260.5,567.18273 260.22755,571.18875 259.89455,572.85375 C 259.25609,576.04604 259.89276,575.79693 248,577.50771 C 246.9,577.66594 242.0785,577.34187 237.28556,576.78755 z M 677,577.4788 C 658.56193,575.03555 651.98172,573.32117 640.67149,568.01396 C 631.0372,563.49317 623.76014,558.12973 615.4486,549.42384 C 605.97889,539.50481 602.18355,534.00194 597.71751,523.7155 C 592.76751,512.31434 590.76031,503.71338 589.33529,487.79714 C 585.33595,443.12783 602.32355,407.40576 636.08208,389.4965 C 650.17354,382.02083 667.96739,378.07997 687.63992,378.07785 C 714.46403,378.07495 733.77409,385.21947 749.65109,401.02134 C 761.33138,412.64637 767.10727,425.87891 770.62673,449.07648 C 773.96847,471.10262 771.97235,479.97493 762.5,485.19798 C 760.49645,486.30274 749.31013,486.67577 706.16864,487.07648 C 654.3425,487.55785 652.28443,487.64879 650.91864,489.51761 C 648.2777,493.13122 649.22436,502.03678 653.19476,510.9298 C 657.53227,520.6451 669.45237,527.91963 682.4998,528.81392 C 696.06536,529.74372 701.92821,527.17799 716.28652,514.02794 C 727.06518,504.15631 732.10285,501.71295 741.46869,501.81412 C 755.23338,501.96281 764.21181,507.98094 767.06209,518.96906 C 769.73872,529.28774 763.87213,543.66221 752.64111,554.30367 C 737.7921,568.3732 716.38382,576.21889 689.5,577.44356 C 684.275,577.68159 678.65,577.69744 677,577.4788 z M 708.21688,445.45486 C 711.98147,444.44562 712.8927,437.67035 710.01285,432.10133 C 706.91511,426.11096 696.44303,419.86262 687.28541,418.54062 C 675.0447,416.77353 658.31123,425.68553 652.50677,437.0632 C 649.92054,442.13263 649.97531,443.93003 652.75,445.04532 C 655.22804,446.04137 704.66748,446.4064 708.21688,445.45486 z M -39.905314,570.54904 C -46.632975,567.04059 -49.449657,560.39063 -49.478038,547.9486 C -49.499519,538.53148 -48.423949,533.94492 -45.26662,529.98982 C -41.931867,525.81248 -34.951635,524.51669 -27.847241,526.75616 C -22.671624,528.38762 -22.438489,528.3793 -20.974665,526.5107 C -15.838817,519.95468 -16,521.58878 -16,476.07648 C -16,430.12203 -16.246124,427.74049 -21.09107,426.81432 C -22.428915,426.55858 -25.430725,426.71834 -27.761758,427.16935 C -42.398974,430.0014 -49.316619,423.71074 -49.444127,407.45221 C -49.599305,387.66558 -39.247435,380.01287 -18.5,384.57648 C -9.997523,386.44669 -4.283428,386.42348 7.163716,384.47224 C 18.10529,382.60718 22.761296,383.17636 26.10863,386.7882 C 28.425775,389.28844 28.503601,389.89941 28.616001,406.4725 C 28.679802,415.87969 28.938074,422.67648 29.189938,421.57648 C 30.19436,417.18974 33.700717,408.60334 35.54582,406.01213 C 36.620619,404.50272 37.5,402.86399 37.5,402.37053 C 37.5,401.87707 40.199729,398.73992 43.499397,395.39909 C 53.01087,385.76896 62.5947,381.4934 80.0102,379.11079 C 97.7566,376.6829 119.63554,387.50702 128.88539,403.2907 C 133.6103,411.35315 135.67068,425.01867 133.45165,433.57648 C 130.26965,445.84804 124.87263,453.07127 115.66685,457.37918 C 101.37022,464.06938 85.77832,458.72731 79.55347,445.00606 C 76.94919,439.26552 77.02202,436.85203 80.0191,429.57648 C 81.3785,426.27648 82.49282,423.40202 82.49537,423.1888 C 82.51046,421.92505 70.19094,424.55817 66,426.71445 C 59.21078,430.20758 55.8249,433.56382 52.51999,440.07648 C 45.54076,453.82973 43,469.17573 43,497.57648 C 43,516.51595 43.238361,519.99382 44.713409,522.57648 C 47.918526,528.1883 47.563157,528.03169 53.80134,526.58158 C 61.94454,524.68863 69.2749,527.14287 73.59379,533.2082 C 75.48082,535.85829 75.83191,537.60675 75.76274,544.00991 C 75.62307,556.93953 71.1127,567.13426 64.04906,570.48617 C 59.72625,572.53748 47.483056,572.54719 33.5,570.51039 C 19.802645,568.51522 1.916161,568.50648 -12.801216,570.48777 C -27.664335,572.48868 -36.149171,572.50786 -39.905314,570.54904 z M 431,570.41128 C 423.99389,566.70944 421.20557,562.00615 414.49827,542.57648 C 411.84015,534.87648 406.67053,520.47648 403.01021,510.57648 C 399.34989,500.67648 395.67074,490.55148 394.83432,488.07648 C 390.75161,475.99552 378.1134,441.99372 376.06385,437.57648 C 372.66133,430.24326 370.61128,428.76328 364.27624,429.06675 C 354.81753,429.51986 352.11486,429.08158 348.3717,426.48757 C 341.60887,421.80093 338.68061,409.62443 341.44787,397.69646 C 342.52996,393.03225 348.10937,387.00731 353.66771,384.50085 C 357.46072,382.79045 358.3484,382.7858 373.32007,384.39805 C 392.78441,386.4941 401.4123,386.50736 421.87254,384.47266 C 439.73906,382.69591 445.45022,382.99011 451.33084,385.99018 C 456.90842,388.83565 459.67519,393.77673 460.25167,401.92156 C 461.19686,415.27601 456.11938,423.58343 445.5,426.05719 C 442.475,426.76185 439.4375,427.78456 438.75,428.32988 C 436.75277,429.91406 437.28353,435.25539 440.4323,445.25983 C 442.04507,450.38399 446.05757,463.12648 449.34897,473.57648 C 452.64037,484.02648 456.99426,497.97648 459.02428,504.57648 C 465.13984,524.45934 466.31357,527.66928 466.88583,526.07648 C 467.73229,523.72048 470.64258,514.72996 480.48147,484.07648 C 485.5127,468.40148 491.4001,450.75947 493.56458,444.872 C 495.72906,438.98454 497.5,433.01476 497.5,431.60582 C 497.5,428.89523 496.19003,428.07758 486.24064,424.57798 C 480.33094,422.4993 476.24996,418.52299 474.69309,413.32663 C 470.99069,400.96911 476.38519,387.55164 486.39922,384.21059 C 491.08854,382.64606 496.49463,382.74766 514.62588,384.74108 C 529.58095,386.38529 530.99762,386.37979 547.62588,384.61282 C 564.0191,382.87083 565.32438,382.86153 570.74554,384.44818 C 578.33816,386.67035 582.86679,390.78122 585.54987,397.8868 C 589.96217,409.57186 586.37586,423.05992 577.55088,427.97086 C 573.68045,430.12469 572.7085,430.26743 567.87659,429.39161 C 563.64077,428.62384 561.85797,428.73135 559.44486,429.90005 C 554.93491,432.08428 555.01481,431.90335 537.06553,480.57648 C 526.8261,508.34281 525.69371,511.35674 519.97035,526.07648 C 517.93875,531.30148 515.46456,538.10446 514.47214,541.19421 C 510.7045,552.92422 504.14431,563.42159 497.55148,568.27001 C 492.24751,572.1706 482.61396,573.12365 473.94989,570.60494 C 466.52448,568.44631 458.51558,568.40043 451.52478,570.47648 C 444.65797,572.5157 434.92431,572.48478 431,570.41128 z M 793.78428,569.98314 C 786.40578,565.25725 783.53847,554.84004 785.89723,541.32875 C 787.73058,530.82708 789.36191,528.4632 796.13457,526.49434 C 801.10993,525.04796 801.93258,525.05943 806.69594,526.64156 L 811.86166,528.35734 L 814.14658,525.70096 C 818.68456,520.42525 819.00117,517.11045 818.98183,475.07648 C 818.96198,431.89927 818.53057,427.6978 814.02861,426.8372 C 812.67765,426.57895 809.06616,426.79942 806.00309,427.32715 C 796.82042,428.90921 792.41934,427.25652 788.02623,420.57648 C 785.19477,416.27103 785.11588,398.24284 787.9059,393.07648 C 792.94937,383.73734 801.34237,381.2424 816.5,384.57648 C 825.03843,386.4546 830.82986,386.42347 842.76361,384.43535 C 850.60825,383.12845 853.39498,383.02805 856.44664,383.94235 C 862.55778,385.77329 863.48755,388.87965 863.56581,407.72761 C 863.63157,423.56361 863.63282,423.57202 865.10536,418.07648 C 867.01829,410.93745 873.37571,400.29163 879.30302,394.3018 C 884.50602,389.04393 895.38641,382.97697 902.85315,381.17013 C 921.13155,376.74702 935.39189,378.7896 948.73298,387.74171 C 954.344,391.5068 956.4538,393.64532 962.3821,401.57648 C 972.5269,415.14873 971.5129,438.19637 960.2381,450.30896 C 946.39053,465.18554 924.76892,463.33609 914.85977,446.42741 C 912.62568,442.61522 912.31541,441.15395 912.7814,436.63897 C 913.08266,433.71996 914.31095,429.40722 915.51092,427.05508 L 917.69268,422.77847 L 911.86752,423.4631 C 904.70614,424.30478 897.04917,427.83313 892.79892,432.24995 C 886.26276,439.04225 880.49895,456.0365 878.5415,474.28707 C 877.19179,486.87134 877.2007,514.00282 878.55631,519.38366 C 879.13729,521.68971 880.37479,524.56445 881.30631,525.77197 C 882.93858,527.88784 883.2092,527.91815 888.76886,526.60778 C 897.72279,524.49742 905.5915,527.50371 909.1782,534.40532 C 912.47421,540.74758 910.26066,557.11644 905.01789,565.17019 C 903.73121,567.14673 901.10781,569.50923 899.18811,570.42019 C 894.7175,572.54163 882.68768,572.57699 868.5,570.51039 C 854.80264,568.51522 836.91616,568.50648 822.19878,570.48777 C 805.6996,572.70893 797.82161,572.56902 793.78428,569.98314 z M 300,546.89115 C 295.42567,544.31919 283.09473,535.78008 280.64233,533.48606 C 279.18905,532.12664 275.8741,529.56586 273.27579,527.79543 C 270.67747,526.02501 268.53997,524.23898 268.52579,523.82648 C 268.5116,523.41398 271.79656,523.07648 275.82569,523.07648 C 286.36144,523.07648 286.79135,522.45864 289.41497,503.54728 C 291.90029,485.63271 291.91837,485.07648 290.01511,485.07648 C 287.14343,485.07648 271.22588,490.10257 267.54398,492.17192 C 262.85639,494.80649 260.80724,498.26118 259.18864,506.25836 L 257.90987,512.57648 L 245.53053,512.57648 L 233.15119,512.57648 L 231.95612,507.57648 C 230.30764,500.67945 228.10711,495.98162 225.28777,493.34048 C 223.24854,491.43015 212.24123,486.99025 202.10787,483.99067 L 199.21574,483.13457 L 199.79659,493.35552 C 200.46942,505.19502 202.04873,514.20946 204.25905,518.82648 L 205.81494,522.07648 L 213.83321,522.07648 L 221.85148,522.07648 L 214.42574,527.60602 C 210.34158,530.64726 206.54549,533.68476 205.98997,534.35602 C 204.08067,536.66311 196.95393,541.80426 192.55223,544.04984 C 186.45312,547.16137 177.89354,547.83159 173.12906,545.5707 C 165.03067,541.72776 152.75029,524.02272 148.16313,509.57648 C 141.77135,489.44698 141.03932,469.52758 146.12032,453.98905 C 149.40883,443.93228 153.68308,438.91209 160.52581,437.06953 C 167.51977,435.18625 172.29183,436.28549 183.28079,442.31113 C 188.80817,445.34198 194.71341,448.30383 196.40356,448.89301 C 198.09371,449.4822 201.39433,451.25141 203.73828,452.82457 C 208.21452,455.82886 222.92954,463.07648 224.55297,463.07648 C 226.85471,463.07648 224.49581,434.63083 221.99214,432.19584 C 221.44647,431.66512 215.6,430.73239 209,430.12309 C 202.4,429.51379 193.85,428.60868 190,428.11173 C 186.15,427.61479 177.825,426.65438 171.5,425.97749 C 165.175,425.30061 159.82065,424.60412 159.60145,424.42975 C 158.8238,423.81115 164.98,415.50315 169.86667,410.57648 L 174.82608,405.57648 L 197.28435,405.22835 L 219.74261,404.88021 L 219.06262,396.18781 C 218.45003,388.35698 218.58481,387.23838 220.42244,384.90222 C 223.29087,381.2556 226.67688,380.6957 246.18846,380.64168 C 262.11993,380.59757 263.58254,380.74738 266.18846,382.69023 C 268.90392,384.71474 269.0097,385.12939 269.28379,394.82363 C 269.54965,404.22636 269.70769,404.89845 271.78379,405.45503 C 273.00271,405.78181 282.78163,406.05532 293.51473,406.06282 L 313.02945,406.07648 L 321.01473,415.0306 C 325.40663,419.95537 329,424.56787 329,425.2806 C 329,426.22402 325.8722,426.77647 317.5,427.31178 C 284.3934,429.42859 267.48529,430.75786 266.95788,431.28527 C 265.58333,432.65981 263.63425,444.41811 262.97274,455.32648 C 262.2933,466.53078 262.64949,468.39727 265.05,466.21144 C 265.5725,465.73566 271.85,462.30497 279,458.58766 C 286.15,454.87036 293.8,450.89262 296,449.74823 C 298.2,448.60384 302.62488,446.12924 305.83308,444.24913 C 314.19299,439.34992 318.82625,438.17582 326,439.13867 C 331.50952,439.87815 332.38199,440.35697 336.67286,444.99609 C 343.85914,452.76561 345.64385,458.59734 346.25936,476.32103 C 346.71687,489.49538 346.51891,492.10447 344.40048,500.82103 C 340.0398,518.76359 326.37206,542.03614 317.83986,546.04675 C 313.03029,548.30751 303.33522,548.7664 300,546.89115 z"
         id="path2408" />
      <path
         style="fill:#fc6060"
         d="M 237.28556,576.78755 L 228.57112,575.7797 L 228.28556,566.82651 L 228,557.87332 L 221.63051,562.96853 C 214.71601,568.49972 209.58348,570.44318 204.54946,569.43637 C 198.92525,568.31153 199.44935,566.03102 207.96451,554.57648 C 210.41769,551.27648 215.90088,543.48512 220.14939,537.26234 C 224.39789,531.03956 229.22523,524.62706 230.87681,523.01234 C 233.854,520.10158 233.98011,520.07648 245.626,520.07648 L 257.37233,520.07648 L 263.27367,528.82648 C 266.5194,533.63898 273.74113,544.0638 279.32195,551.99275 C 290.24431,567.5107 290.48192,568.42644 283.90609,569.66008 C 278.82499,570.61329 276.62667,569.69348 269.5,563.63235 C 265.925,560.59186 262.4375,558.09795 261.75,558.09033 C 260.89027,558.08081 260.5,559.91076 260.5,563.95148 C 260.5,567.18273 260.22755,571.18875 259.89455,572.85375 C 259.25609,576.04604 259.89276,575.79693 248,577.50771 C 246.9,577.66594 242.0785,577.34187 237.28556,576.78755 z M 670.5,576.4391 C 649.1898,573.32765 632.58932,565.71386 618.64402,552.65543 C 614.03062,548.33542 603.5,535.68199 603.5,534.4586 C 603.5,534.06005 602.87882,533.02353 602.11961,532.15522 C 599.61858,529.29482 593.3201,511.96025 591.43031,502.73633 C 583.60298,464.53166 592.82653,427.56905 615.93608,404.53144 C 632.72348,387.79631 658.37703,378.22685 686.76077,378.11195 C 719.74092,377.97843 747.94904,392.15386 759.81283,414.82281 C 766.49204,427.58523 768.60084,435.15867 770.92902,454.74499 C 772.99163,472.0972 770.87347,480.23236 763.22939,484.31667 C 759.02501,486.56312 758.68196,486.57944 705.21282,487.07648 C 658.89483,487.50705 651.28628,487.78478 650.42212,489.07648 C 648.56763,491.8485 649.85452,504.12661 652.62318,510.07648 C 658.45094,522.60039 670.01211,529.09636 686.39922,529.05452 C 698.27482,529.02419 701.34652,527.45447 717.97186,512.92004 C 726.15901,505.76257 730.69797,503.15449 736.98682,501.99407 C 744.56164,500.59636 757.0204,504.12202 761.57996,508.9536 C 766.08701,513.72954 767.00063,516.37808 766.95394,524.5325 C 766.9121,531.83968 766.55095,533.28774 763.01103,540.34158 C 755.81148,554.68779 741.16397,565.60813 720.51707,572.02263 C 714.92555,573.75979 706.67177,575.60414 702.17533,576.1212 C 694.35296,577.02071 675.76141,577.2073 670.5,576.4391 z M 710.05887,444.65688 C 712.78759,442.66128 712.42821,435.05487 709.39613,430.62984 C 704.78604,423.90185 692.79984,418.10195 683.5,418.09917 C 676.1878,418.09699 663.04466,423.663 658.38954,428.73323 C 651.20558,436.55781 648.78238,442.97668 652.25,444.99638 C 653.31787,445.61836 664.54729,446.02752 681.05887,446.04607 C 702.88805,446.0706 708.4929,445.80211 710.05887,444.65688 z M -40.088697,570.18553 C -46.767111,566.11308 -49.543741,559.17463 -49.45623,546.77726 C -49.394212,537.99147 -46.841892,531.19355 -42.5,528.24984 C -39.353817,526.1168 -38.342912,525.94847 -32.5,526.58472 C -20.74667,527.86457 -21.316631,528.00777 -18.536752,523.07648 L -16,518.57648 L -16,475.57648 C -16,435.69354 -16.133541,432.33156 -17.842207,429.19783 L -19.684413,425.81918 L -26.342207,426.63034 C -36.877703,427.91394 -39.039148,427.66537 -42.891394,424.72712 C -45.457814,422.76961 -46.862192,420.59594 -47.969454,416.86739 C -52.324704,402.20167 -46.617413,387.07009 -35.612933,384.10689 C -31.122399,382.89771 -29.005072,383.06255 -14.220311,385.77231 C -6.866565,387.1201 -4.543823,387.18076 0.081076,386.14575 C 16.004868,382.58216 22.712929,382.98913 26.454514,387.74578 C 28.322539,390.12059 28.50509,391.78769 28.558664,406.96134 L 28.617328,423.57648 L 30.935618,416.88705 C 34.146984,407.62066 38.64929,400.56737 45.616764,393.88763 C 55.87471,384.05332 67.6486,379.82359 85,379.73936 C 94.88122,379.69139 96.71195,379.97738 103,382.55131 C 112.06416,386.2616 117.01921,389.67584 123.27736,396.52326 C 131.63968,405.67296 135.92037,420.13365 133.59769,431.38653 C 130.87877,444.5591 124.92532,452.83772 114.68893,457.68031 C 100.95251,464.17868 83.82241,457.04953 78.95676,442.8094 C 77.41271,438.29046 77.43089,437.74393 79.30606,432.30941 C 80.39404,429.1563 81.63248,425.7197 82.05816,424.67253 C 82.78107,422.89418 82.43775,422.80435 76.85349,423.31071 C 69.5576,423.97228 62.25249,427.53126 57.49888,432.74008 C 51.85556,438.92382 49.415037,444.53846 45.399179,460.57648 C 43.362336,468.71096 43.138612,472.07687 43.072807,495.57648 C 43.000985,521.22455 43.031393,521.62049 45.319279,524.82814 C 47.28785,527.58811 48.043922,527.97192 50.319279,527.36636 C 51.79368,526.97397 55.7,526.64449 59,526.63419 C 73.26577,526.58966 78.70863,536.90528 74.00234,555.06746 C 71.92013,563.10297 68.12119,568.56165 63.22976,570.54655 C 58.42116,572.49784 48.039059,572.48352 34.5,570.50692 C 20.931018,568.52595 -0.204061,568.51634 -13.5,570.48509 C -28.036285,572.6375 -36.218905,572.54531 -40.088697,570.18553 z M 430.42871,570.10008 C 426.27325,567.90324 425.57222,567.13164 422.18289,561.0243 C 419.64514,556.45143 418.63835,553.85504 411.53963,533.57648 C 409.42176,527.52648 406.03008,518.07648 404.00256,512.57648 C 401.97504,507.07648 397.25891,494.02648 393.52227,483.57648 C 373.08423,426.4188 373.89834,427.7789 360.74768,428.8215 C 353.28693,429.413 349.63044,428.12801 345.54995,423.48059 C 342.0342,419.47637 340.51115,414.518 340.51115,407.07648 C 340.51115,398.81098 342.21144,394.10188 346.88231,389.43101 C 353.78571,382.52761 356.48778,382.3087 386.65457,386.20883 C 395.01686,387.28996 398.46313,387.21507 412.40153,385.64934 C 421.25235,384.65511 432.4328,383.80169 437.24696,383.75287 C 445.00633,383.67417 446.57322,383.97695 451.04938,386.42003 C 458.20938,390.32792 460.01592,394.10303 459.94121,405.00111 C 459.89258,412.09346 459.48968,414.21942 457.61148,417.29419 C 454.9391,421.66912 450.89579,424.28732 444,426.10816 C 441.25,426.8343 438.66939,427.91173 438.26531,428.50245 C 436.78426,430.66758 437.57083,437.06246 440.44293,446.20672 C 442.06155,451.36009 446.29213,464.80148 449.84423,476.07648 C 456.48362,497.15111 463.84404,520.84508 464.98819,524.82648 C 465.86421,527.87487 467.14177,527.65924 467.95053,524.32648 C 468.6745,521.34317 486.43641,466.05692 489.55606,457.07648 C 490.60689,454.05148 492.82417,447.83136 494.48333,443.254 C 496.1425,438.67663 497.5,433.438 497.5,431.61258 C 497.5,428.70832 497.03146,428.10789 493.75,426.80697 C 491.6875,425.9893 488.50407,424.99734 486.67572,424.60262 C 484.84737,424.2079 481.81472,422.53568 479.93651,420.88659 C 470.57229,412.6647 472.87658,391.19549 483.74573,385.39581 C 487.87378,383.19312 503.43907,383.24293 518.69111,385.50764 C 526.95292,386.7344 530.87498,386.84785 537.0952,386.03998 C 562.78267,382.70375 570.83709,383.05839 577.81959,387.83307 C 582.03403,390.71493 583.92773,393.78645 586.19298,401.41436 C 588.87505,410.44588 586.05412,420.9081 579.43517,426.47758 C 576.519,428.93137 575.65464,429.1156 567.90633,428.9348 C 556.33092,428.66469 555.77669,429.21266 549.05201,447.57648 C 547.03795,453.07648 544.10138,460.95148 542.5263,465.07648 C 540.95121,469.20148 536.00034,482.47648 531.52435,494.57648 C 527.04836,506.67648 522.33344,519.27648 521.04674,522.57648 C 519.76004,525.87648 517.04082,533.25331 515.00402,538.96943 C 505.0496,566.90583 493.49018,576.02482 474.92811,570.5845 C 467.39603,568.37693 458.51254,568.31681 451.5685,570.4264 C 444.25387,572.64857 434.97852,572.50539 430.42871,570.10008 z M 794.78047,570.44357 C 787.77282,566.98847 783.95253,555.29206 785.68596,542.5993 C 786.84472,534.1145 788.93073,530.17125 793.53402,527.76389 C 796.92082,525.99272 802.9848,525.93466 810.5,527.60145 C 812.55033,528.0562 813.39947,527.52976 815.22089,524.67464 C 819.32217,518.24579 819.61387,514.52001 819.29965,472.57648 C 819.02512,435.92949 818.8454,432.29293 817.15575,429.19387 L 815.31149,425.81127 L 809.15575,426.61618 C 799.12527,427.92775 796.14604,427.67269 792.6816,425.20579 C 787.37431,421.42667 786.05048,417.82193 786.02369,407.07648 C 786.00295,398.76073 786.31164,397.02656 788.5,393.16506 C 794.19529,383.11534 800.14114,381.75227 820.79298,385.76197 C 827.12244,386.99088 829.75164,387.05864 834.79298,386.12276 C 848.20628,383.63272 852.51753,383.24254 855.99831,384.20362 C 862.16736,385.90698 862.93571,388.2964 863.5,407.53218 C 863.86609,420.01165 864.21883,423.5052 864.81707,420.57648 C 866.44787,412.59286 872.63323,401.89779 879.71275,394.82043 C 890.52607,384.01043 901.64024,379.7941 919.46117,379.74126 C 930.17672,379.70948 931.52397,379.9292 938.34382,382.82078 C 947.40611,386.66313 952.4841,390.12474 957.7127,396.02419 C 964.261,403.41285 966.3154,407.41623 968.1618,416.38637 C 969.7048,423.88246 969.7521,425.66714 968.5677,431.72305 C 966.0616,444.53714 960.1463,452.73318 949.90863,457.57638 C 943.59596,460.56275 936.16012,460.86148 928.98577,458.41693 C 921.06613,455.71844 912.43035,445.37187 912.53265,438.70436 C 912.56177,436.80602 914.77166,429.88556 917.01339,424.67253 C 917.77963,422.89067 917.44877,422.80335 911.85349,423.31071 C 901.46562,424.25265 891.81214,430.68071 887.39522,439.59698 C 879.78763,454.95415 877.27482,470.48004 877.68777,499.57648 C 877.98802,520.7322 878.08901,521.70127 880.31928,524.82814 C 882.28785,527.58811 883.04392,527.97192 885.31928,527.36636 C 886.79368,526.97397 890.7,526.64449 894,526.63419 C 901.32233,526.61134 905.39977,528.77415 908.52821,534.34046 C 910.45475,537.76827 910.67489,539.28546 910.20995,545.93053 C 909.36009,558.07685 906.49659,564.80182 900.18249,569.48018 C 896.29509,572.36051 884.72403,572.77686 869.70769,570.57673 C 855.31803,568.46841 835.56617,568.43693 821.5,570.49989 C 807.92762,572.49044 798.89333,572.47139 794.78047,570.44357 z M 300,546.89115 C 295.42567,544.31919 283.09473,535.78008 280.64233,533.48606 C 279.18905,532.12664 275.8741,529.56586 273.27579,527.79543 C 270.67747,526.02501 268.53997,524.23898 268.52579,523.82648 C 268.5116,523.41398 271.79656,523.07648 275.82569,523.07648 C 286.36144,523.07648 286.79135,522.45864 289.41497,503.54728 C 291.90029,485.63271 291.91837,485.07648 290.01511,485.07648 C 287.14343,485.07648 271.22588,490.10257 267.54398,492.17192 C 262.85639,494.80649 260.80724,498.26118 259.18864,506.25836 L 257.90987,512.57648 L 245.53053,512.57648 L 233.15119,512.57648 L 231.95612,507.57648 C 230.30764,500.67945 228.10711,495.98162 225.28777,493.34048 C 223.24854,491.43015 212.24123,486.99025 202.10787,483.99067 L 199.21574,483.13457 L 199.79659,493.35552 C 200.46942,505.19502 202.04873,514.20946 204.25905,518.82648 L 205.81494,522.07648 L 213.83321,522.07648 L 221.85148,522.07648 L 214.42574,527.60602 C 210.34158,530.64726 206.54549,533.68476 205.98997,534.35602 C 204.08067,536.66311 196.95393,541.80426 192.55223,544.04984 C 186.45312,547.16137 177.89354,547.83159 173.12906,545.5707 C 165.03067,541.72776 152.75029,524.02272 148.16313,509.57648 C 141.77135,489.44698 141.03932,469.52758 146.12032,453.98905 C 149.40883,443.93228 153.68308,438.91209 160.52581,437.06953 C 167.51977,435.18625 172.29183,436.28549 183.28079,442.31113 C 188.80817,445.34198 194.71341,448.30383 196.40356,448.89301 C 198.09371,449.4822 201.39433,451.25141 203.73828,452.82457 C 208.21452,455.82886 222.92954,463.07648 224.55297,463.07648 C 226.85471,463.07648 224.49581,434.63083 221.99214,432.19584 C 221.44647,431.66512 215.6,430.73239 209,430.12309 C 202.4,429.51379 193.85,428.60868 190,428.11173 C 186.15,427.61479 177.825,426.65438 171.5,425.97749 C 165.175,425.30061 159.82065,424.60412 159.60145,424.42975 C 158.8238,423.81115 164.98,415.50315 169.86667,410.57648 L 174.82608,405.57648 L 197.28435,405.22835 L 219.74261,404.88021 L 219.06262,396.18781 C 218.45003,388.35698 218.58481,387.23838 220.42244,384.90222 C 223.29087,381.2556 226.67688,380.6957 246.18846,380.64168 C 262.11993,380.59757 263.58254,380.74738 266.18846,382.69023 C 268.90392,384.71474 269.0097,385.12939 269.28379,394.82363 C 269.54965,404.22636 269.70769,404.89845 271.78379,405.45503 C 273.00271,405.78181 282.78163,406.05532 293.51473,406.06282 L 313.02945,406.07648 L 321.01473,415.0306 C 325.40663,419.95537 329,424.56787 329,425.2806 C 329,426.22402 325.8722,426.77647 317.5,427.31178 C 284.3934,429.42859 267.48529,430.75786 266.95788,431.28527 C 265.58333,432.65981 263.63425,444.41811 262.97274,455.32648 C 262.2933,466.53078 262.64949,468.39727 265.05,466.21144 C 265.5725,465.73566 271.85,462.30497 279,458.58766 C 286.15,454.87036 293.8,450.89262 296,449.74823 C 298.2,448.60384 302.62488,446.12924 305.83308,444.24913 C 314.19299,439.34992 318.82625,438.17582 326,439.13867 C 331.50952,439.87815 332.38199,440.35697 336.67286,444.99609 C 343.85914,452.76561 345.64385,458.59734 346.25936,476.32103 C 346.71687,489.49538 346.51891,492.10447 344.40048,500.82103 C 340.0398,518.76359 326.37206,542.03614 317.83986,546.04675 C 313.03029,548.30751 303.33522,548.7664 300,546.89115 z"
         id="path2406" />
      <path
         style="fill:#777777"
         d="M 234.25,576.40694 L 229.5,575.9669 L 229.5,566.52169 C 229.5,561.32682 229.24465,557.07648 228.93255,557.07648 C 228.62046,557.07648 225.80796,559.16651 222.68255,561.72099 C 215.9246,567.24446 211.93254,569.07648 206.65456,569.07648 C 199.93496,569.07648 199.77679,567.30537 205.72926,558.71542 C 208.62817,554.53204 214.31655,546.26439 218.37012,540.34288 C 222.42369,534.42136 227.29131,527.66398 229.18707,525.32648 L 232.6339,521.07648 L 244.99889,521.07648 L 257.36388,521.07648 L 266.60367,534.32648 C 271.68555,541.61398 277.85985,550.50148 280.32433,554.07648 C 282.78882,557.65148 285.91532,562.03947 287.27213,563.82757 L 289.73904,567.07866 L 286.15164,568.57757 C 284.17857,569.40197 281.60204,570.07648 280.42602,570.07648 C 278.5482,570.07648 273.50692,566.74823 268.32207,562.08545 C 267.39921,561.25552 265.3235,559.80004 263.70938,558.85105 L 260.77461,557.12562 L 260.26037,566.14466 C 259.97753,571.10512 259.50017,575.40964 259.19956,575.71025 C 258.46323,576.44658 240.18682,576.95693 234.25,576.40694 z M 670.5,576.4391 C 649.1898,573.32765 632.58932,565.71386 618.64402,552.65543 C 614.03062,548.33542 603.5,535.68199 603.5,534.4586 C 603.5,534.06005 602.87882,533.02353 602.11961,532.15522 C 599.61858,529.29482 593.3201,511.96025 591.43031,502.73633 C 583.60298,464.53166 592.82653,427.56905 615.93608,404.53144 C 632.72348,387.79631 658.37703,378.22685 686.76077,378.11195 C 719.74092,377.97843 747.94904,392.15386 759.81283,414.82281 C 766.49204,427.58523 768.60084,435.15867 770.92902,454.74499 C 772.99163,472.0972 770.87347,480.23236 763.22939,484.31667 C 759.02501,486.56312 758.68196,486.57944 705.21282,487.07648 C 658.89483,487.50705 651.28628,487.78478 650.42212,489.07648 C 648.56763,491.8485 649.85452,504.12661 652.62318,510.07648 C 658.45094,522.60039 670.01211,529.09636 686.39922,529.05452 C 698.27482,529.02419 701.34652,527.45447 717.97186,512.92004 C 726.15901,505.76257 730.69797,503.15449 736.98682,501.99407 C 744.56164,500.59636 757.0204,504.12202 761.57996,508.9536 C 766.08701,513.72954 767.00063,516.37808 766.95394,524.5325 C 766.9121,531.83968 766.55095,533.28774 763.01103,540.34158 C 755.81148,554.68779 741.16397,565.60813 720.51707,572.02263 C 714.92555,573.75979 706.67177,575.60414 702.17533,576.1212 C 694.35296,577.02071 675.76141,577.2073 670.5,576.4391 z M 710.05887,444.65688 C 712.78759,442.66128 712.42821,435.05487 709.39613,430.62984 C 704.78604,423.90185 692.79984,418.10195 683.5,418.09917 C 676.1878,418.09699 663.04466,423.663 658.38954,428.73323 C 651.20558,436.55781 648.78238,442.97668 652.25,444.99638 C 653.31787,445.61836 664.54729,446.02752 681.05887,446.04607 C 702.88805,446.0706 708.4929,445.80211 710.05887,444.65688 z M -40.088697,570.18553 C -46.767111,566.11308 -49.543741,559.17463 -49.45623,546.77726 C -49.394212,537.99147 -46.841892,531.19355 -42.5,528.24984 C -39.353817,526.1168 -38.342912,525.94847 -32.5,526.58472 C -20.74667,527.86457 -21.316631,528.00777 -18.536752,523.07648 L -16,518.57648 L -16,475.57648 C -16,435.69354 -16.133541,432.33156 -17.842207,429.19783 L -19.684413,425.81918 L -26.342207,426.63034 C -36.877703,427.91394 -39.039148,427.66537 -42.891394,424.72712 C -45.457814,422.76961 -46.862192,420.59594 -47.969454,416.86739 C -52.324704,402.20167 -46.617413,387.07009 -35.612933,384.10689 C -31.122399,382.89771 -29.005072,383.06255 -14.220311,385.77231 C -6.866565,387.1201 -4.543823,387.18076 0.081076,386.14575 C 16.004868,382.58216 22.712929,382.98913 26.454514,387.74578 C 28.322539,390.12059 28.50509,391.78769 28.558664,406.96134 L 28.617328,423.57648 L 30.935618,416.88705 C 34.146984,407.62066 38.64929,400.56737 45.616764,393.88763 C 55.87471,384.05332 67.6486,379.82359 85,379.73936 C 94.88122,379.69139 96.71195,379.97738 103,382.55131 C 112.06416,386.2616 117.01921,389.67584 123.27736,396.52326 C 131.63968,405.67296 135.92037,420.13365 133.59769,431.38653 C 130.87877,444.5591 124.92532,452.83772 114.68893,457.68031 C 100.95251,464.17868 83.82241,457.04953 78.95676,442.8094 C 77.41271,438.29046 77.43089,437.74393 79.30606,432.30941 C 80.39404,429.1563 81.63248,425.7197 82.05816,424.67253 C 82.78107,422.89418 82.43775,422.80435 76.85349,423.31071 C 69.5576,423.97228 62.25249,427.53126 57.49888,432.74008 C 51.85556,438.92382 49.415037,444.53846 45.399179,460.57648 C 43.362336,468.71096 43.138612,472.07687 43.072807,495.57648 C 43.000985,521.22455 43.031393,521.62049 45.319279,524.82814 C 47.28785,527.58811 48.043922,527.97192 50.319279,527.36636 C 51.79368,526.97397 55.7,526.64449 59,526.63419 C 73.26577,526.58966 78.70863,536.90528 74.00234,555.06746 C 71.92013,563.10297 68.12119,568.56165 63.22976,570.54655 C 58.42116,572.49784 48.039059,572.48352 34.5,570.50692 C 20.931018,568.52595 -0.204061,568.51634 -13.5,570.48509 C -28.036285,572.6375 -36.218905,572.54531 -40.088697,570.18553 z M 430.42871,570.10008 C 426.27325,567.90324 425.57222,567.13164 422.18289,561.0243 C 419.64514,556.45143 418.63835,553.85504 411.53963,533.57648 C 409.42176,527.52648 406.03008,518.07648 404.00256,512.57648 C 401.97504,507.07648 397.25891,494.02648 393.52227,483.57648 C 373.08423,426.4188 373.89834,427.7789 360.74768,428.8215 C 353.28693,429.413 349.63044,428.12801 345.54995,423.48059 C 342.0342,419.47637 340.51115,414.518 340.51115,407.07648 C 340.51115,398.81098 342.21144,394.10188 346.88231,389.43101 C 353.78571,382.52761 356.48778,382.3087 386.65457,386.20883 C 395.01686,387.28996 398.46313,387.21507 412.40153,385.64934 C 421.25235,384.65511 432.4328,383.80169 437.24696,383.75287 C 445.00633,383.67417 446.57322,383.97695 451.04938,386.42003 C 458.20938,390.32792 460.01592,394.10303 459.94121,405.00111 C 459.89258,412.09346 459.48968,414.21942 457.61148,417.29419 C 454.9391,421.66912 450.89579,424.28732 444,426.10816 C 441.25,426.8343 438.66939,427.91173 438.26531,428.50245 C 436.78426,430.66758 437.57083,437.06246 440.44293,446.20672 C 442.06155,451.36009 446.29213,464.80148 449.84423,476.07648 C 456.48362,497.15111 463.84404,520.84508 464.98819,524.82648 C 465.86421,527.87487 467.14177,527.65924 467.95053,524.32648 C 468.6745,521.34317 486.43641,466.05692 489.55606,457.07648 C 490.60689,454.05148 492.82417,447.83136 494.48333,443.254 C 496.1425,438.67663 497.5,433.438 497.5,431.61258 C 497.5,428.70832 497.03146,428.10789 493.75,426.80697 C 491.6875,425.9893 488.50407,424.99734 486.67572,424.60262 C 484.84737,424.2079 481.81472,422.53568 479.93651,420.88659 C 470.57229,412.6647 472.87658,391.19549 483.74573,385.39581 C 487.87378,383.19312 503.43907,383.24293 518.69111,385.50764 C 526.95292,386.7344 530.87498,386.84785 537.0952,386.03998 C 562.78267,382.70375 570.83709,383.05839 577.81959,387.83307 C 582.03403,390.71493 583.92773,393.78645 586.19298,401.41436 C 588.87505,410.44588 586.05412,420.9081 579.43517,426.47758 C 576.519,428.93137 575.65464,429.1156 567.90633,428.9348 C 556.33092,428.66469 555.77669,429.21266 549.05201,447.57648 C 547.03795,453.07648 544.10138,460.95148 542.5263,465.07648 C 540.95121,469.20148 536.00034,482.47648 531.52435,494.57648 C 527.04836,506.67648 522.33344,519.27648 521.04674,522.57648 C 519.76004,525.87648 517.04082,533.25331 515.00402,538.96943 C 505.0496,566.90583 493.49018,576.02482 474.92811,570.5845 C 467.39603,568.37693 458.51254,568.31681 451.5685,570.4264 C 444.25387,572.64857 434.97852,572.50539 430.42871,570.10008 z M 794.78047,570.44357 C 787.77282,566.98847 783.95253,555.29206 785.68596,542.5993 C 786.84472,534.1145 788.93073,530.17125 793.53402,527.76389 C 796.92082,525.99272 802.9848,525.93466 810.5,527.60145 C 812.55033,528.0562 813.39947,527.52976 815.22089,524.67464 C 819.32217,518.24579 819.61387,514.52001 819.29965,472.57648 C 819.02512,435.92949 818.8454,432.29293 817.15575,429.19387 L 815.31149,425.81127 L 809.15575,426.61618 C 799.12527,427.92775 796.14604,427.67269 792.6816,425.20579 C 787.37431,421.42667 786.05048,417.82193 786.02369,407.07648 C 786.00295,398.76073 786.31164,397.02656 788.5,393.16506 C 794.19529,383.11534 800.14114,381.75227 820.79298,385.76197 C 827.12244,386.99088 829.75164,387.05864 834.79298,386.12276 C 848.20628,383.63272 852.51753,383.24254 855.99831,384.20362 C 862.16736,385.90698 862.93571,388.2964 863.5,407.53218 C 863.86609,420.01165 864.21883,423.5052 864.81707,420.57648 C 866.44787,412.59286 872.63323,401.89779 879.71275,394.82043 C 890.52607,384.01043 901.64024,379.7941 919.46117,379.74126 C 930.17672,379.70948 931.52397,379.9292 938.34382,382.82078 C 947.40611,386.66313 952.4841,390.12474 957.7127,396.02419 C 964.261,403.41285 966.3154,407.41623 968.1618,416.38637 C 969.7048,423.88246 969.7521,425.66714 968.5677,431.72305 C 966.0616,444.53714 960.1463,452.73318 949.90863,457.57638 C 943.59596,460.56275 936.16012,460.86148 928.98577,458.41693 C 921.06613,455.71844 912.43035,445.37187 912.53265,438.70436 C 912.56177,436.80602 914.77166,429.88556 917.01339,424.67253 C 917.77963,422.89067 917.44877,422.80335 911.85349,423.31071 C 901.46562,424.25265 891.81214,430.68071 887.39522,439.59698 C 879.78763,454.95415 877.27482,470.48004 877.68777,499.57648 C 877.98802,520.7322 878.08901,521.70127 880.31928,524.82814 C 882.28785,527.58811 883.04392,527.97192 885.31928,527.36636 C 886.79368,526.97397 890.7,526.64449 894,526.63419 C 901.32233,526.61134 905.39977,528.77415 908.52821,534.34046 C 910.45475,537.76827 910.67489,539.28546 910.20995,545.93053 C 909.36009,558.07685 906.49659,564.80182 900.18249,569.48018 C 896.29509,572.36051 884.72403,572.77686 869.70769,570.57673 C 855.31803,568.46841 835.56617,568.43693 821.5,570.49989 C 807.92762,572.49044 798.89333,572.47139 794.78047,570.44357 z M 297.91897,545.30391 C 292.18915,542.06983 287.74753,538.86887 278.89481,531.59372 C 275.53695,528.83424 271.93695,526.04044 270.89481,525.38529 C 269.3135,524.39118 270.10757,524.18436 275.69424,524.13529 C 286.09222,524.04394 287.02388,522.82484 289.49503,506.07648 C 291.50649,492.44371 291.95746,485.86728 290.94994,484.85975 C 290.6474,484.55721 288.9599,484.67599 287.19994,485.12369 C 265.29557,490.6958 261.76901,493.28541 258.68851,506.06014 L 257,513.06237 L 245.40971,513.06942 L 233.81943,513.07648 L 232.52305,507.67255 C 229.83168,496.45369 225.57013,491.31259 216.5,488.34253 C 214.575,487.71217 210.34265,486.26944 207.09477,485.13646 C 203.8469,484.00347 200.5844,483.07648 199.84477,483.07648 C 197.60385,483.07648 198.04708,490.07131 201.61898,511.07648 C 203.33816,521.18637 204.10447,521.93852 213.03787,522.28433 L 220.58487,522.57648 L 213.79243,527.81456 C 210.0566,530.69551 203.85,535.53668 200,538.57272 C 189.59336,546.77921 178.89738,549.07454 172,544.58145 C 161.48638,537.73267 152.33327,522.71556 146.86775,503.3481 C 144.3802,494.53327 144.1048,491.96088 144.0551,477.07648 C 144.00223,461.24536 144.11865,460.25394 146.92677,452.61998 C 148.59188,448.09333 151.06738,443.47691 152.66937,441.91092 C 155.40513,439.23663 163.69657,436.07648 167.9775,436.07648 C 170.02789,436.07648 200.0687,450.73865 205.88201,454.57673 C 210.43075,457.57991 224.78217,464.02012 225.68388,463.46284 C 226.97259,462.66637 226.64289,454.56372 224.82765,442.42034 L 223.1553,431.23285 L 217.07765,430.61769 C 213.73494,430.27936 207.175,429.55744 202.5,429.01342 C 179.59431,426.34796 166.94985,425.07648 163.34835,425.07648 L 159.38693,425.07648 L 161.19346,421.89121 C 162.18706,420.13931 165.72242,415.80112 169.04983,412.25078 L 175.09966,405.79562 L 192.04983,405.94397 C 201.37242,406.02557 211.3625,405.81191 214.25,405.46918 L 219.5,404.84603 L 219.5,395.0837 C 219.5,387.78796 219.86536,385.01815 220.94603,384.12127 C 225.33313,380.4803 245.27773,379.0418 258.60013,381.40548 C 268.27185,383.12145 268.5,383.44772 268.5,395.563 L 268.5,405.80463 L 273.13957,406.44056 C 275.69134,406.79031 285.77278,407.07648 295.54278,407.07648 L 313.30642,407.07648 L 320.89145,415.32648 C 327.76387,422.8014 329.83326,426.04951 327.75,426.09165 C 327.3375,426.1 317.55,426.77521 306,427.59213 C 294.45,428.40904 280.9197,429.36468 275.93266,429.71578 C 267.36714,430.3188 266.8007,430.50013 265.69758,432.99225 C 263.58599,437.76266 261.37713,467.07648 263.12925,467.07648 C 263.72386,467.07648 278.22387,459.50813 309.82266,442.70461 C 327.13701,433.49725 340.77898,441.68079 345.01456,463.81552 C 349.80194,488.8339 342.65701,516.41904 325.75066,538.18959 C 320.10769,545.45611 317.05449,547.20449 309.04519,547.75573 C 303.79824,548.11685 302.32908,547.7931 297.91897,545.30391 z"
         id="path2404" />
      <path
         style="fill:#fc0000"
         d="M 234.25,576.40694 L 229.5,575.9669 L 229.5,566.52169 C 229.5,561.32682 229.24465,557.07648 228.93255,557.07648 C 228.62046,557.07648 225.80796,559.16651 222.68255,561.72099 C 215.9246,567.24446 211.93254,569.07648 206.65456,569.07648 C 199.93496,569.07648 199.77679,567.30537 205.72926,558.71542 C 208.62817,554.53204 214.31655,546.26439 218.37012,540.34288 C 222.42369,534.42136 227.29131,527.66398 229.18707,525.32648 L 232.6339,521.07648 L 244.99889,521.07648 L 257.36388,521.07648 L 266.60367,534.32648 C 271.68555,541.61398 277.85985,550.50148 280.32433,554.07648 C 282.78882,557.65148 285.91532,562.03947 287.27213,563.82757 L 289.73904,567.07866 L 286.15164,568.57757 C 284.17857,569.40197 281.60204,570.07648 280.42602,570.07648 C 278.5482,570.07648 273.50692,566.74823 268.32207,562.08545 C 267.39921,561.25552 265.3235,559.80004 263.70938,558.85105 L 260.77461,557.12562 L 260.26037,566.14466 C 259.97753,571.10512 259.50017,575.40964 259.19956,575.71025 C 258.46323,576.44658 240.18682,576.95693 234.25,576.40694 z M 665.43698,575.52726 C 646.82229,572.15594 630.66377,563.94222 617.84984,551.3377 C 596.68721,530.52093 588.61614,507.61131 589.76273,471.61286 C 590.17917,458.53833 590.76327,453.74605 592.92522,445.66593 C 601.58875,413.28673 623.85211,390.75078 655,382.83113 C 671.89299,378.53593 682.67807,377.52943 696.5218,378.95616 C 703.12628,379.63682 711.11071,380.85149 714.26497,381.65543 C 751.01583,391.02219 770.49915,419.20405 770.9005,463.57648 C 771.01525,476.26283 769.66971,480.35135 764.31847,483.57648 C 761.13745,485.49364 758.74961,485.59719 706.66869,486.07648 C 643.38204,486.65889 649.05098,485.4606 649.73618,498.11083 C 650.02505,503.44375 650.85367,507.0804 652.57214,510.55723 C 658.83983,523.23806 673.29961,530.88129 689,529.81246 C 697.54867,529.23049 701.95391,527.00991 712.28212,518.07648 C 725.60443,506.55329 729.15084,504.14201 735.02764,502.6113 C 741.50776,500.92344 747.77383,501.73259 755.72403,505.28385 C 764.30888,509.11861 768.79218,519.01706 766.68854,529.49184 C 764.30626,541.35412 757.49942,551.20148 746.14257,559.21542 C 736.51847,566.00666 731.75903,568.32225 719.98439,571.94209 C 703.31476,577.06677 681.75975,578.48349 665.43698,575.52726 z M 707.99653,445.64238 C 717.24403,441.77853 711.18622,427.57474 697.56658,421.18718 C 692.9248,419.0102 690.57886,418.57648 683.44582,418.57648 C 675.6925,418.57648 674.26291,418.8957 668.176,421.98616 C 660.91818,425.67111 654.85962,431.49108 651.57104,437.93723 C 650.43197,440.17 649.5,442.24635 649.5,442.55134 C 649.5,442.85634 650.9625,443.99758 652.75,445.08744 C 655.75384,446.91892 657.83915,447.06929 680.28212,447.07274 C 699.11483,447.07564 705.33451,446.75464 707.99653,445.64238 z M -40.660937,569.61309 C -46.589707,565.58439 -48.900357,559.47945 -48.847199,547.98428 C -48.811196,540.19903 -48.384686,537.46972 -46.641289,533.86835 C -43.346221,527.06164 -40.233426,526.13587 -24.624361,527.32033 C -20.613247,527.6247 -17.892344,524.68579 -16.457475,518.49909 C -15.957106,516.34165 -15.536978,496.76914 -15.523857,475.00462 C -15.50331,440.92302 -15.727334,434.76557 -17.138544,430.6239 L -18.777088,425.81503 L -25.888544,426.58908 C -35.844175,427.6727 -39.293775,427.35951 -42.492814,425.0816 C -46.542965,422.19763 -48.5,416.37391 -48.5,407.20547 C -48.5,393.68338 -44.878354,387.11446 -36.000272,384.53354 C -31.036008,383.09038 -29.789765,383.09625 -21.288285,384.60278 C -6.069387,387.29968 -5.446477,387.31336 6.142333,385.20519 C 19.474272,382.77992 23.512968,383.40982 26.54828,388.38785 C 28.25983,391.19485 28.49881,393.55126 28.545045,408.07648 L 28.597567,424.57648 L 31.383439,416.43518 C 34.427803,407.53848 41.228903,397.09412 47.162979,392.20275 C 60.04036,381.58813 84.46291,376.6261 99.53339,381.56245 C 111.81546,385.58544 122.71056,393.6011 127.79592,402.35555 C 139.13452,421.87491 133.59937,447.71562 116.12335,456.84862 C 109.25764,460.43665 98.14265,460.6642 91.87179,457.34511 C 86.26949,454.37988 79.97883,447.00449 78.67678,441.87483 C 77.63779,437.78152 78.27627,434.56625 82.08834,424.6949 C 82.75979,422.95618 82.36642,422.84605 76.90748,423.24439 C 65.18607,424.09972 56.47566,430.512 51.12713,442.22295 C 44.152641,457.49404 42.228308,470.82875 42.680197,500.75621 C 42.978918,520.53973 43.140259,522.12185 45.127662,524.75621 C 46.705843,526.84813 47.99712,527.51999 50.127662,527.35772 C 62.88666,526.38601 65.26301,526.65834 69.01824,529.5226 C 74.2062,533.47964 75.88255,538.0229 75.13361,546.09652 C 73.8889,559.51454 69.73349,567.82749 62.82881,570.71245 C 58.42875,572.55092 47.55678,572.43121 35.739235,570.41417 C 22.676272,568.18457 -2.795143,568.1869 -15.250445,570.41884 C -28.957791,572.87514 -36.198274,572.64555 -40.660937,569.61309 z M 431.06345,569.91269 C 424.5105,566.45789 422.05494,562.18249 414.50148,541.07648 C 412.23788,534.75148 409.32229,526.65148 408.0224,523.07648 C 406.72251,519.50148 401.7653,505.77648 397.00639,492.57648 C 392.24747,479.37648 387.52062,466.32648 386.50228,463.57648 C 385.48394,460.82648 383.03705,454.10785 381.06474,448.64619 C 376.58658,436.24539 373.12959,430.26635 369.67937,428.95458 C 368.15608,428.37543 364.50935,428.22721 361.20865,428.6103 C 352.44452,429.62748 347.19238,426.99736 343.16879,419.57648 C 341.39219,416.29982 341.0196,414.03717 341.10838,407.06424 C 341.23404,397.19461 343.29766,391.99367 348.73298,387.84795 C 354.73969,383.2664 357.9258,382.97006 376.85037,385.2327 C 394.87969,387.3883 397.81771,387.35252 425.5,384.6402 C 441.4961,383.0729 447.07363,383.64067 452.65938,387.4049 C 458.04212,391.03233 459.86842,395.27764 459.86842,404.16257 C 459.86842,417.31765 455.38554,423.38852 443.68104,426.08408 C 435.37395,427.99722 435.18868,430.57607 441.84961,451.57648 C 443.76856,457.62648 446.88628,467.52648 448.77789,473.57648 C 454.99869,493.47266 459.73466,508.42467 463.03141,518.57648 C 466.87402,530.40921 465.37596,532.61558 476.05317,499.39778 C 484.23208,473.9524 490.63904,454.65715 495.32948,441.34508 C 499.47985,429.56579 498.72559,427.63355 489,425.13046 C 483.83012,423.79988 479.03647,420.82488 476.96275,417.65997 C 473.21156,411.93494 474.31515,395.28494 478.79851,389.96343 C 483.2293,384.70432 485.94855,383.72262 495.83951,383.8113 C 500.87778,383.85647 510.4,384.59031 517,385.44206 C 528.14284,386.88008 530.24403,386.86011 546.4162,385.16242 C 560.81638,383.65076 564.73373,383.54367 569.03724,384.54405 C 579.41859,386.95728 583.35016,391.04804 585.9343,402.12528 C 588.28413,412.1981 585.28875,422.24247 578.4917,427.08239 C 576.08232,428.79802 574.3546,429.08036 567.67349,428.85028 C 560.89392,428.61682 559.39645,428.87078 557.50891,430.57412 C 554.23617,433.52748 553.50127,435.23881 540.43216,470.33999 C 533.83077,488.07006 527.99877,503.60291 527.47215,504.85745 C 526.94553,506.11198 523.08442,516.46198 518.89191,527.85745 C 510.67451,550.19279 508.82977,554.33905 504.2673,560.72782 C 497.27808,570.51474 486.65107,574.258 475.88841,570.72402 C 467.37018,567.927 460.81442,567.73025 452.09004,570.00976 C 442.13538,572.61072 436.12839,572.58299 431.06345,569.91269 z M 794.78542,570.10898 C 793.0174,569.03097 790.3174,566.22015 788.78542,563.86272 C 786.16011,559.82286 786.0018,558.94418 786.03132,548.57648 C 786.05808,539.1799 786.38653,536.96185 788.28459,533.35992 C 791.7198,526.84094 793.54414,526.33467 810,527.33365 C 813.87659,527.56899 814.07713,527.42222 816.5,522.57648 L 819,517.57648 L 819.28253,476.68245 C 819.53054,440.78519 819.36262,435.17895 817.9083,430.8004 L 816.25154,425.81237 L 809.12577,426.60856 C 799.22379,427.71495 796.07316,427.49814 793.02443,425.50053 C 786.40921,421.16607 783.66124,407.14403 787.37216,396.65874 C 788.52407,393.40398 790.46015,389.68335 791.67455,388.39067 C 794.46684,385.41842 802.82237,382.892 807.45475,383.61928 C 809.40464,383.92542 815.05,384.88905 820,385.76068 C 828.5876,387.27285 829.53413,387.25017 840.6565,385.26576 C 853.77749,382.92477 858.18765,383.42463 860.89719,387.55991 C 862.20915,389.56222 862.5,393.09739 862.5,407.0413 C 862.5,416.41065 862.89658,424.07648 863.38129,424.07648 C 863.86599,424.07648 864.78432,422.00442 865.42202,419.4719 C 868.10892,408.80124 876.79531,395.97245 886.0028,389.07648 C 893.0705,383.7831 906.86549,379.94771 919.27237,379.8266 C 937.19937,379.65161 951.0715,386.53748 960.9547,400.51686 C 969.9593,413.25364 971.416,429.12496 964.815,442.57648 C 958.1353,456.1883 943.08364,463.08824 929.73908,458.65589 C 923.90956,456.71963 914.99479,448.11888 913.96286,443.43539 C 913.61641,441.86299 913.17254,440.04755 912.97649,439.40108 C 912.42927,437.59671 914.35043,431.01757 916.69179,426.67772 L 918.79518,422.77897 L 912.24932,423.3044 C 895.84418,424.62125 887.06697,433.97544 880.8466,456.77141 C 878.25976,466.25146 878.16824,467.4937 878.08554,494.24709 C 878.00288,520.98645 878.07161,522.01291 880.12766,524.74709 C 881.69636,526.83316 883.00993,527.52549 885.12766,527.38239 C 898.55107,526.47536 900.28152,526.67246 904.03586,529.53603 C 909.20647,533.47985 910.88189,538.03001 910.13361,546.09652 C 908.87506,559.66374 904.84216,567.6532 897.7582,570.61306 C 893.14463,572.54074 882.77355,572.46676 870.73923,570.42033 C 864.55627,569.36892 855.3402,568.76418 845.5,568.76418 C 835.6598,568.76418 826.44373,569.36892 820.26077,570.42033 C 806.9287,572.68744 798.85239,572.58873 794.78542,570.10898 z M 297.91897,545.30391 C 292.18915,542.06983 287.74753,538.86887 278.89481,531.59372 C 275.53695,528.83424 271.93695,526.04044 270.89481,525.38529 C 269.3135,524.39118 270.10757,524.18436 275.69424,524.13529 C 286.09222,524.04394 287.02388,522.82484 289.49503,506.07648 C 291.50649,492.44371 291.95746,485.86728 290.94994,484.85975 C 290.6474,484.55721 288.9599,484.67599 287.19994,485.12369 C 265.29557,490.6958 261.76901,493.28541 258.68851,506.06014 L 257,513.06237 L 245.40971,513.06942 L 233.81943,513.07648 L 232.52305,507.67255 C 229.83168,496.45369 225.57013,491.31259 216.5,488.34253 C 214.575,487.71217 210.34265,486.26944 207.09477,485.13646 C 203.8469,484.00347 200.5844,483.07648 199.84477,483.07648 C 197.60385,483.07648 198.04708,490.07131 201.61898,511.07648 C 203.33816,521.18637 204.10447,521.93852 213.03787,522.28433 L 220.58487,522.57648 L 213.79243,527.81456 C 210.0566,530.69551 203.85,535.53668 200,538.57272 C 189.59336,546.77921 178.89738,549.07454 172,544.58145 C 161.48638,537.73267 152.33327,522.71556 146.86775,503.3481 C 144.3802,494.53327 144.1048,491.96088 144.0551,477.07648 C 144.00223,461.24536 144.11865,460.25394 146.92677,452.61998 C 148.59188,448.09333 151.06738,443.47691 152.66937,441.91092 C 155.40513,439.23663 163.69657,436.07648 167.9775,436.07648 C 170.02789,436.07648 200.0687,450.73865 205.88201,454.57673 C 210.43075,457.57991 224.78217,464.02012 225.68388,463.46284 C 226.97259,462.66637 226.64289,454.56372 224.82765,442.42034 L 223.1553,431.23285 L 217.07765,430.61769 C 213.73494,430.27936 207.175,429.55744 202.5,429.01342 C 179.59431,426.34796 166.94985,425.07648 163.34835,425.07648 L 159.38693,425.07648 L 161.19346,421.89121 C 162.18706,420.13931 165.72242,415.80112 169.04983,412.25078 L 175.09966,405.79562 L 192.04983,405.94397 C 201.37242,406.02557 211.3625,405.81191 214.25,405.46918 L 219.5,404.84603 L 219.5,395.0837 C 219.5,387.78796 219.86536,385.01815 220.94603,384.12127 C 225.33313,380.4803 245.27773,379.0418 258.60013,381.40548 C 268.27185,383.12145 268.5,383.44772 268.5,395.563 L 268.5,405.80463 L 273.13957,406.44056 C 275.69134,406.79031 285.77278,407.07648 295.54278,407.07648 L 313.30642,407.07648 L 320.89145,415.32648 C 327.76387,422.8014 329.83326,426.04951 327.75,426.09165 C 327.3375,426.1 317.55,426.77521 306,427.59213 C 294.45,428.40904 280.9197,429.36468 275.93266,429.71578 C 267.36714,430.3188 266.8007,430.50013 265.69758,432.99225 C 263.58599,437.76266 261.37713,467.07648 263.12925,467.07648 C 263.72386,467.07648 278.22387,459.50813 309.82266,442.70461 C 327.13701,433.49725 340.77898,441.68079 345.01456,463.81552 C 349.80194,488.8339 342.65701,516.41904 325.75066,538.18959 C 320.10769,545.45611 317.05449,547.20449 309.04519,547.75573 C 303.79824,548.11685 302.32908,547.7931 297.91897,545.30391 z"
         id="path2402" />
      <path
         style="fill:#4b4b4b"
         d="M 665.43698,575.52726 C 646.82229,572.15594 630.66377,563.94222 617.84984,551.3377 C 596.68721,530.52093 588.61614,507.61131 589.76273,471.61286 C 590.17917,458.53833 590.76327,453.74605 592.92522,445.66593 C 601.58875,413.28673 623.85211,390.75078 655,382.83113 C 671.89299,378.53593 682.67807,377.52943 696.5218,378.95616 C 703.12628,379.63682 711.11071,380.85149 714.26497,381.65543 C 751.01583,391.02219 770.49915,419.20405 770.9005,463.57648 C 771.01525,476.26283 769.66971,480.35135 764.31847,483.57648 C 761.13745,485.49364 758.74961,485.59719 706.66869,486.07648 C 643.38204,486.65889 649.05098,485.4606 649.73618,498.11083 C 650.02505,503.44375 650.85367,507.0804 652.57214,510.55723 C 658.83983,523.23806 673.29961,530.88129 689,529.81246 C 697.54867,529.23049 701.95391,527.00991 712.28212,518.07648 C 725.60443,506.55329 729.15084,504.14201 735.02764,502.6113 C 741.50776,500.92344 747.77383,501.73259 755.72403,505.28385 C 764.30888,509.11861 768.79218,519.01706 766.68854,529.49184 C 764.30626,541.35412 757.49942,551.20148 746.14257,559.21542 C 736.51847,566.00666 731.75903,568.32225 719.98439,571.94209 C 703.31476,577.06677 681.75975,578.48349 665.43698,575.52726 z M 707.99653,445.64238 C 717.24403,441.77853 711.18622,427.57474 697.56658,421.18718 C 692.9248,419.0102 690.57886,418.57648 683.44582,418.57648 C 675.6925,418.57648 674.26291,418.8957 668.176,421.98616 C 660.91818,425.67111 654.85962,431.49108 651.57104,437.93723 C 650.43197,440.17 649.5,442.24635 649.5,442.55134 C 649.5,442.85634 650.9625,443.99758 652.75,445.08744 C 655.75384,446.91892 657.83915,447.06929 680.28212,447.07274 C 699.11483,447.07564 705.33451,446.75464 707.99653,445.64238 z M -40.660937,569.61309 C -46.589707,565.58439 -48.900357,559.47945 -48.847199,547.98428 C -48.811196,540.19903 -48.384686,537.46972 -46.641289,533.86835 C -43.346221,527.06164 -40.233426,526.13587 -24.624361,527.32033 C -20.613247,527.6247 -17.892344,524.68579 -16.457475,518.49909 C -15.957106,516.34165 -15.536978,496.76914 -15.523857,475.00462 C -15.50331,440.92302 -15.727334,434.76557 -17.138544,430.6239 L -18.777088,425.81503 L -25.888544,426.58908 C -35.844175,427.6727 -39.293775,427.35951 -42.492814,425.0816 C -46.542965,422.19763 -48.5,416.37391 -48.5,407.20547 C -48.5,393.68338 -44.878354,387.11446 -36.000272,384.53354 C -31.036008,383.09038 -29.789765,383.09625 -21.288285,384.60278 C -6.069387,387.29968 -5.446477,387.31336 6.142333,385.20519 C 19.474272,382.77992 23.512968,383.40982 26.54828,388.38785 C 28.25983,391.19485 28.49881,393.55126 28.545045,408.07648 L 28.597567,424.57648 L 31.383439,416.43518 C 34.427803,407.53848 41.228903,397.09412 47.162979,392.20275 C 60.04036,381.58813 84.46291,376.6261 99.53339,381.56245 C 111.81546,385.58544 122.71056,393.6011 127.79592,402.35555 C 139.13452,421.87491 133.59937,447.71562 116.12335,456.84862 C 109.25764,460.43665 98.14265,460.6642 91.87179,457.34511 C 86.26949,454.37988 79.97883,447.00449 78.67678,441.87483 C 77.63779,437.78152 78.27627,434.56625 82.08834,424.6949 C 82.75979,422.95618 82.36642,422.84605 76.90748,423.24439 C 65.18607,424.09972 56.47566,430.512 51.12713,442.22295 C 44.152641,457.49404 42.228308,470.82875 42.680197,500.75621 C 42.978918,520.53973 43.140259,522.12185 45.127662,524.75621 C 46.705843,526.84813 47.99712,527.51999 50.127662,527.35772 C 62.88666,526.38601 65.26301,526.65834 69.01824,529.5226 C 74.2062,533.47964 75.88255,538.0229 75.13361,546.09652 C 73.8889,559.51454 69.73349,567.82749 62.82881,570.71245 C 58.42875,572.55092 47.55678,572.43121 35.739235,570.41417 C 22.676272,568.18457 -2.795143,568.1869 -15.250445,570.41884 C -28.957791,572.87514 -36.198274,572.64555 -40.660937,569.61309 z M 431.06345,569.91269 C 424.5105,566.45789 422.05494,562.18249 414.50148,541.07648 C 412.23788,534.75148 409.32229,526.65148 408.0224,523.07648 C 406.72251,519.50148 401.7653,505.77648 397.00639,492.57648 C 392.24747,479.37648 387.52062,466.32648 386.50228,463.57648 C 385.48394,460.82648 383.03705,454.10785 381.06474,448.64619 C 376.58658,436.24539 373.12959,430.26635 369.67937,428.95458 C 368.15608,428.37543 364.50935,428.22721 361.20865,428.6103 C 352.44452,429.62748 347.19238,426.99736 343.16879,419.57648 C 341.39219,416.29982 341.0196,414.03717 341.10838,407.06424 C 341.23404,397.19461 343.29766,391.99367 348.73298,387.84795 C 354.73969,383.2664 357.9258,382.97006 376.85037,385.2327 C 394.87969,387.3883 397.81771,387.35252 425.5,384.6402 C 441.4961,383.0729 447.07363,383.64067 452.65938,387.4049 C 458.04212,391.03233 459.86842,395.27764 459.86842,404.16257 C 459.86842,417.31765 455.38554,423.38852 443.68104,426.08408 C 435.37395,427.99722 435.18868,430.57607 441.84961,451.57648 C 443.76856,457.62648 446.88628,467.52648 448.77789,473.57648 C 454.99869,493.47266 459.73466,508.42467 463.03141,518.57648 C 466.87402,530.40921 465.37596,532.61558 476.05317,499.39778 C 484.23208,473.9524 490.63904,454.65715 495.32948,441.34508 C 499.47985,429.56579 498.72559,427.63355 489,425.13046 C 483.83012,423.79988 479.03647,420.82488 476.96275,417.65997 C 473.21156,411.93494 474.31515,395.28494 478.79851,389.96343 C 483.2293,384.70432 485.94855,383.72262 495.83951,383.8113 C 500.87778,383.85647 510.4,384.59031 517,385.44206 C 528.14284,386.88008 530.24403,386.86011 546.4162,385.16242 C 560.81638,383.65076 564.73373,383.54367 569.03724,384.54405 C 579.41859,386.95728 583.35016,391.04804 585.9343,402.12528 C 588.28413,412.1981 585.28875,422.24247 578.4917,427.08239 C 576.08232,428.79802 574.3546,429.08036 567.67349,428.85028 C 560.89392,428.61682 559.39645,428.87078 557.50891,430.57412 C 554.23617,433.52748 553.50127,435.23881 540.43216,470.33999 C 533.83077,488.07006 527.99877,503.60291 527.47215,504.85745 C 526.94553,506.11198 523.08442,516.46198 518.89191,527.85745 C 510.67451,550.19279 508.82977,554.33905 504.2673,560.72782 C 497.27808,570.51474 486.65107,574.258 475.88841,570.72402 C 467.37018,567.927 460.81442,567.73025 452.09004,570.00976 C 442.13538,572.61072 436.12839,572.58299 431.06345,569.91269 z M 794.78542,570.10898 C 793.0174,569.03097 790.3174,566.22015 788.78542,563.86272 C 786.16011,559.82286 786.0018,558.94418 786.03132,548.57648 C 786.05808,539.1799 786.38653,536.96185 788.28459,533.35992 C 791.7198,526.84094 793.54414,526.33467 810,527.33365 C 813.87659,527.56899 814.07713,527.42222 816.5,522.57648 L 819,517.57648 L 819.28253,476.68245 C 819.53054,440.78519 819.36262,435.17895 817.9083,430.8004 L 816.25154,425.81237 L 809.12577,426.60856 C 799.22379,427.71495 796.07316,427.49814 793.02443,425.50053 C 786.40921,421.16607 783.66124,407.14403 787.37216,396.65874 C 788.52407,393.40398 790.46015,389.68335 791.67455,388.39067 C 794.46684,385.41842 802.82237,382.892 807.45475,383.61928 C 809.40464,383.92542 815.05,384.88905 820,385.76068 C 828.5876,387.27285 829.53413,387.25017 840.6565,385.26576 C 853.77749,382.92477 858.18765,383.42463 860.89719,387.55991 C 862.20915,389.56222 862.5,393.09739 862.5,407.0413 C 862.5,416.41065 862.89658,424.07648 863.38129,424.07648 C 863.86599,424.07648 864.78432,422.00442 865.42202,419.4719 C 868.10892,408.80124 876.79531,395.97245 886.0028,389.07648 C 893.0705,383.7831 906.86549,379.94771 919.27237,379.8266 C 937.19937,379.65161 951.0715,386.53748 960.9547,400.51686 C 969.9593,413.25364 971.416,429.12496 964.815,442.57648 C 958.1353,456.1883 943.08364,463.08824 929.73908,458.65589 C 923.90956,456.71963 914.99479,448.11888 913.96286,443.43539 C 913.61641,441.86299 913.17254,440.04755 912.97649,439.40108 C 912.42927,437.59671 914.35043,431.01757 916.69179,426.67772 L 918.79518,422.77897 L 912.24932,423.3044 C 895.84418,424.62125 887.06697,433.97544 880.8466,456.77141 C 878.25976,466.25146 878.16824,467.4937 878.08554,494.24709 C 878.00288,520.98645 878.07161,522.01291 880.12766,524.74709 C 881.69636,526.83316 883.00993,527.52549 885.12766,527.38239 C 898.55107,526.47536 900.28152,526.67246 904.03586,529.53603 C 909.20647,533.47985 910.88189,538.03001 910.13361,546.09652 C 908.87506,559.66374 904.84216,567.6532 897.7582,570.61306 C 893.14463,572.54074 882.77355,572.46676 870.73923,570.42033 C 864.55627,569.36892 855.3402,568.76418 845.5,568.76418 C 835.6598,568.76418 826.44373,569.36892 820.26077,570.42033 C 806.9287,572.68744 798.85239,572.58873 794.78542,570.10898 z"
         id="path2400" />
      <path
         style="fill:#000000"
         d="M 673,576.67935 C 672.45,576.46595 668.625,575.7143 664.5,575.009 C 652.21413,572.90836 633.30168,564.80314 626,558.50924 C 604.50391,539.98006 594.77899,523.13648 590.96762,497.83306 C 587.04245,471.77415 590.47195,445.48472 600.18265,427.19373 C 610.03532,408.6353 620.68394,398.09704 639.03335,388.74568 C 647.2984,384.53358 653.70824,382.71176 670,379.94424 C 695.75871,375.56856 723.2965,381.21388 741.54813,394.61181 C 760.08453,408.21878 770.39566,432.15212 770.83936,462.60019 C 771.03889,476.29294 769.51908,480.51798 763.19753,483.84422 C 759.03964,486.032 758.4963,486.05533 705.66116,486.31467 L 652.32233,486.57648 L 650.41116,488.93726 C 648.24096,491.61803 647.90086,497.4806 649.59502,503.00548 C 653.22034,514.8281 658.96735,521.71906 669.46273,526.82788 C 674.38607,529.22441 676.16416,529.5262 685.5,529.54987 C 695.32053,529.57476 696.35076,529.38235 701.42036,526.57648 C 704.40156,524.92648 710.25156,520.47336 714.42036,516.68066 C 718.58916,512.88796 724.4362,508.16296 727.41379,506.18066 C 732.61176,502.72015 733.16985,502.57926 741.41379,502.6461 C 750.74173,502.72174 756.19262,504.6649 761.78667,509.90872 C 765.46928,513.36077 767.91469,521.76527 767.02822,527.92312 C 764.60762,544.73774 747.96173,561.59225 725.5,569.97181 C 713.38562,574.4912 704.3596,576.1315 689,576.60497 C 680.75,576.85928 673.55,576.89275 673,576.67935 z M 710.39686,444.67149 C 711.82894,443.37434 712.5,441.5579 712.5,438.97865 C 712.5,426.52407 692.58313,414.84494 677.23032,418.29672 C 666.21845,420.77253 653.96117,430.47291 650.56822,439.39706 C 647.93123,446.33285 650.80912,447.0049 682.14686,446.77135 C 706.30004,446.59134 708.45409,446.43123 710.39686,444.67149 z M -37.031299,571.04923 C -44.861618,568.68154 -48.861023,560.66377 -48.764768,547.52668 C -48.686323,536.82037 -46.167063,529.95583 -41.684062,528.23301 C -36.290309,526.1602 -32.798404,525.9989 -28.070221,527.60416 C -25.454189,528.49232 -22.780809,529.01448 -22.129376,528.7645 C -21.477943,528.51452 -19.607338,525.89495 -17.972476,522.94324 L -15,517.57648 L -14.665167,483.07648 C -14.328488,448.38614 -15.220377,432.1675 -17.690322,428.06527 C -18.917409,426.02726 -19.472965,425.93564 -26.5,426.61237 C -36.951025,427.61884 -39.340763,427.34881 -42.527984,424.80128 C -46.400654,421.70587 -47.669775,418.62839 -48.252276,410.92049 C -48.954489,401.62851 -47.892113,396.01135 -44.449527,390.81399 C -42.015477,387.13925 -40.546554,386.05036 -36.163525,384.67173 C -30.602299,382.92251 -31.243368,382.88303 -13.5,386.06772 C -6.702079,387.28786 -1.809968,386.97152 10.2223,384.53376 C 16.625905,383.23638 17.875062,383.24274 21.24202,384.58993 C 27.457931,387.07705 27.90887,388.53238 28.330813,407.46786 C 28.559737,417.74127 29.052412,423.81411 29.588291,422.96786 C 30.072887,422.2026 30.476265,420.7237 30.484687,419.68141 C 30.50899,416.67382 37.121544,403.71869 41.004761,399.07078 C 47.976223,390.72649 56.68734,384.96011 65.97646,382.54059 C 88.5656,376.65687 106.8812,380.61768 120.62123,394.35771 C 127.21186,400.94833 129.92896,405.55335 132.18972,413.96425 C 136.22609,428.9811 131.35087,445.77141 120.68656,453.58125 C 108.28355,462.66441 95.35394,462.00533 85.26545,451.77569 C 78.75071,445.1698 77.09925,439.57324 79.55511,432.4242 C 80.52857,429.59045 81.83024,426.32795 82.4477,425.1742 C 83.52768,423.15623 83.35042,423.07651 77.78518,423.07727 C 66.93978,423.07875 56.73151,429.76912 51.69328,440.17758 C 44.342752,455.363 42.541597,466.41766 42.518426,496.48862 C 42.500018,520.37684 42.502571,520.40515 45.068841,524.78416 C 46.89,527.89173 48.126997,529.01959 49.318841,528.65918 C 58.1015,526.00332 61.87763,526.15192 68.15992,529.40062 C 73.41922,532.12031 75.01422,535.59789 74.89102,544.07648 C 74.70625,556.79317 70.7588,566.26979 64.17116,569.81163 C 60.07927,572.01163 48.650859,571.93116 31,569.57805 C 14.764312,567.4136 6.347,567.37234 -9.5,569.37953 C -28.004246,571.72328 -33.666427,572.06668 -37.031299,571.04923 z M 434.76363,571.14043 C 426.75805,569.14724 422.70306,563.4982 416.41334,545.57648 C 414.29007,539.52648 411.38406,531.42648 409.95555,527.57648 C 408.52705,523.72648 405.86924,516.30148 404.04932,511.07648 C 400.9657,502.22338 392.34685,478.69596 388.84654,469.57648 C 388.00212,467.37648 386.64806,463.55148 385.83751,461.07648 C 380.36827,444.37612 375.51841,433.27188 372.51642,430.57648 C 370.65339,428.90372 368.8745,428.57551 361.64446,428.57055 C 354.48185,428.56564 352.39102,428.18688 349.44748,426.36104 C 343.95214,422.95236 341.5,417.03566 341.5,407.18483 C 341.5,397.40078 342.83173,393.80595 348.27635,388.89303 C 354.30977,383.4488 357.77713,382.82278 370.93242,384.80252 C 384.77351,386.88547 408.32969,386.87633 426,384.78117 C 439.99135,383.12222 444.82636,383.50203 451.14218,386.75621 C 459.08307,390.84769 462.31511,403.51279 458.17066,414.29804 C 455.87494,420.27228 451.8953,423.62693 444.6835,425.66709 C 435.91085,428.14881 434.88915,430.75288 438.40824,441.66132 C 441.78997,452.14396 452.20297,485.14368 456.99881,500.57648 C 464.0031,523.11594 465.70506,528.07648 466.43407,528.07648 C 467.2201,528.07648 467.4955,527.28829 475.5187,502.07648 C 483.30917,477.59602 491.64456,452.39835 494.53971,444.57648 C 499.51111,431.14515 499.11112,427.84498 492.29516,426.05729 C 479.20566,422.62417 475,417.76544 475,406.07648 C 475,401.95148 475.33737,397.37366 475.74971,395.90355 C 476.75623,392.31501 481.03017,387.37562 484.86912,385.36427 C 488.67386,383.37084 500.26413,383.27171 512.00387,385.13219 C 522.12624,386.73635 537.80701,386.57434 552.20987,384.71679 C 571.88235,382.17961 580.66937,386.03818 585.01523,399.12232 C 588.4192,409.37072 585.16288,422.79495 578.20966,427.17836 C 575.49059,428.8925 573.93007,429.11467 568,428.63191 C 557.54308,427.78062 555.87987,429.11987 550.50067,442.72278 C 545.45776,455.47524 542.38671,463.59689 538.45579,474.57648 C 536.88049,478.97648 534.63958,485.05148 533.47598,488.07648 C 532.31238,491.10148 528.88348,500.32648 525.8562,508.57648 C 512.09264,546.08521 509.32768,552.74142 504.6562,559.61227 C 500.37007,565.91633 495.47399,569.44557 488.83937,571.0135 C 484.31024,572.08384 482.5971,571.97109 474.83937,570.09207 C 469.97772,568.91452 465.19496,567.79182 464.21103,567.5972 C 463.2271,567.40258 458.9521,568.06665 454.71103,569.07291 C 444.41081,571.51681 438.66666,572.11218 434.76363,571.14043 z M 798.4416,571.12825 C 793.5649,569.64847 791.54927,568.01677 788.78138,563.30809 C 786.21485,558.94198 786.00757,557.80401 786.09793,548.57648 C 786.21256,536.87178 788.64839,530.01288 793.31594,528.25177 C 798.88772,526.14948 801.79147,526.01256 806.64136,527.62343 C 812.39923,529.53589 813.39419,529.04924 816.82309,522.64338 C 818.9635,518.64468 819,517.8454 819,474.97787 C 819,422.40581 819.66643,425.48243 808.51843,426.58862 C 798.21324,427.61117 795.80876,427.36463 792.54374,424.9507 C 788.71925,422.12313 787.34247,418.79041 786.74772,410.92049 C 785.09621,389.06692 795.2561,380.05576 815.75393,385.1939 C 822.13924,386.79449 836.49788,386.81546 842.11376,385.23239 C 851.3485,382.62921 859.25536,384.04939 861.37028,388.69112 C 862.06366,390.21293 862.5,397.52527 862.5,407.62353 C 862.5,417.08773 862.89463,424.07648 863.42904,424.07648 C 863.94001,424.07648 865.09912,421.48898 866.00484,418.32648 C 870.99203,400.91265 884.84788,386.74156 901.00086,382.53424 C 926.379,375.92408 946.93315,381.95916 960.1862,399.91218 C 966.8939,408.99869 970.0332,420.19024 968.4985,429.54583 C 966.35,442.64391 960.378,451.66997 950.5,456.74868 C 945.95929,459.08327 943.77909,459.56802 938,459.52796 C 928.0728,459.45916 921.07916,455.28512 915.77166,446.26136 C 913.62858,442.61773 913.31887,441.12038 913.7814,436.63897 C 914.08266,433.71996 915.27674,429.47427 916.4349,427.20408 L 918.54065,423.07648 L 912.77032,423.07727 C 905.44766,423.07827 896.38192,427.16906 891.57859,432.63975 C 885.37241,439.70821 880.62181,453.00137 878.52276,469.17272 C 877.99421,473.24479 877.54786,486.40847 877.53088,498.42535 C 877.5055,516.38304 877.78355,520.87176 879.09211,523.62935 C 881.52346,528.75304 882.33532,529.08465 888.78003,527.58653 C 898.18554,525.40015 906.5945,529.09691 909.22935,536.57648 C 912.033,544.53526 908.64495,560.86486 903.02373,566.48609 C 897.24939,572.26043 892.85766,572.65589 867,569.72996 C 849.15321,567.71049 843.48974,567.41547 837,568.16716 C 799.62479,572.49628 802.2784,572.29249 798.4416,571.12825 z"
         id="path2398" />
    </g>
  </g>
</svg>
